<svg width="40" height="40" viewBox="0 0 40 40" fill="none" xmlns="http://www.w3.org/2000/svg">
<path d="M20.3809 28.4813C25.0408 28.4813 28.8184 24.7037 28.8184 20.0438C28.8184 15.3839 25.0408 11.6063 20.3809 11.6063C15.721 11.6063 11.9434 15.3839 11.9434 20.0438C11.9434 24.7037 15.721 28.4813 20.3809 28.4813Z" fill="#F4D7D9"/>
<path d="M25.4811 26.2062C26.9964 26.2062 28.2248 24.9778 28.2248 23.4625C28.2248 21.9472 26.9964 20.7188 25.4811 20.7188C23.9657 20.7188 22.7373 21.9472 22.7373 23.4625C22.7373 24.9778 23.9657 26.2062 25.4811 26.2062Z" stroke="#B20B18" stroke-width="1.25" stroke-linecap="round" stroke-linejoin="round"/>
<path d="M30.0002 32.0312V31.4062C30.0002 30.2067 29.5245 29.056 28.6774 28.2066C27.8304 27.3572 26.681 26.8783 25.4814 26.875" stroke="#B20B18" stroke-width="1.25" stroke-linecap="round" stroke-linejoin="round"/>
<path d="M25.4809 26.875C24.2785 26.875 23.1253 27.3522 22.2746 28.2018C21.4238 29.0514 20.945 30.2039 20.9434 31.4062V31.9563" stroke="#B20B18" stroke-width="1.25" stroke-linecap="round" stroke-linejoin="round"/>
<path d="M22.6878 16.1188C23.5747 15.8345 24.5002 15.689 25.4315 15.6875C27.2429 15.6888 29.0105 16.2439 30.4974 17.2784C31.9842 18.3128 33.1193 19.7772 33.7502 21.4751C34.3812 23.173 34.4779 25.0232 34.0274 26.7776C33.5769 28.532 32.6007 30.1068 31.2298 31.2906C29.8589 32.4745 28.1587 33.2108 26.3574 33.4009C24.5561 33.5911 22.7397 33.2259 21.1518 32.3543C19.564 31.4827 18.2805 30.1465 17.4737 28.5248C16.6669 26.9031 16.3752 25.0734 16.6378 23.2812" stroke="#B20B18" stroke-width="1.25" stroke-linecap="round" stroke-linejoin="round"/>
<path d="M16.0938 31.5812H9.95625C8.85726 31.5812 7.80328 31.1447 7.02618 30.3676C6.24907 29.5905 5.8125 28.5365 5.8125 27.4375V24.3125" stroke="#B20B18" stroke-width="1.25" stroke-linecap="round" stroke-linejoin="round"/>
<path d="M13.2061 34.4687L16.0936 31.5812L13.2061 28.7" stroke="#B20B18" stroke-width="1.25" stroke-linecap="round" stroke-linejoin="round"/>
<path d="M24.4873 8.4187H30.6248C31.1687 8.4187 31.7072 8.52593 32.2096 8.73425C32.712 8.94257 33.1684 9.24789 33.5527 9.63276C33.937 10.0176 34.2416 10.4745 34.4492 10.9772C34.6567 11.4799 34.7631 12.0186 34.7623 12.5625V15.6875" stroke="#B20B18" stroke-width="1.25" stroke-linecap="round" stroke-linejoin="round"/>
<path d="M27.3748 5.53125L24.4873 8.41875L27.3748 11.3" stroke="#B20B18" stroke-width="1.25" stroke-linecap="round" stroke-linejoin="round"/>
<path d="M14.0127 23.5938C18.8624 23.5938 22.7939 19.6623 22.7939 14.8125C22.7939 9.96275 18.8624 6.03125 14.0127 6.03125C9.16295 6.03125 5.23145 9.96275 5.23145 14.8125C5.23145 19.6623 9.16295 23.5938 14.0127 23.5938Z" stroke="#B20B18" stroke-width="1.25" stroke-linecap="round" stroke-linejoin="round"/>
<path d="M9.29395 14.1813L14.0127 10.4062L18.7314 14.1813" stroke="#B20B18" stroke-width="1.25" stroke-linecap="round" stroke-linejoin="round"/>
<path d="M12.8311 19.2187V15.5812H15.1998V19.2187" stroke="#B20B18" stroke-width="1.25" stroke-linecap="round" stroke-linejoin="round"/>
<path d="M10.5566 13.3375V19.2188H17.4754V13.3375" stroke="#B20B18" stroke-width="1.25" stroke-linecap="round" stroke-linejoin="round"/>
<path d="M11.5811 12.1937V10.5562" stroke="#B20B18" stroke-width="1.25" stroke-linecap="round" stroke-linejoin="round"/>
</svg>
