<svg width="40" height="40" viewBox="0 0 40 40" fill="none" xmlns="http://www.w3.org/2000/svg">
<g clip-path="url(#clip0_714_1453)">
<path d="M26.9189 30.9938C31.5788 30.9938 35.3564 27.2162 35.3564 22.5563C35.3564 17.8964 31.5788 14.1188 26.9189 14.1188C22.259 14.1188 18.4814 17.8964 18.4814 22.5563C18.4814 27.2162 22.259 30.9938 26.9189 30.9938Z" fill="#FFEDD9"/>
<path d="M13.7124 27.825L15.8124 25.9688L20.0062 34.2063" stroke="#B20B18" stroke-width="1.25" stroke-linecap="round" stroke-linejoin="round"/>
<path d="M3.12515 36.8749C3.12515 36.8749 2.8314 33.7499 4.6689 31.6499" stroke="#B20B18" stroke-width="1.25" stroke-linecap="round" stroke-linejoin="round"/>
<path d="M24.1311 25.9688L19.9873 34.2063V36.875" stroke="#B20B18" stroke-width="1.25" stroke-linecap="round" stroke-linejoin="round"/>
<path d="M18.4438 20.1C19.4438 21.25 20.7563 21.0312 21.7501 20.1" stroke="#B20B18" stroke-width="1.25" stroke-linecap="round" stroke-linejoin="round"/>
<path d="M13.5811 15.625C13.5811 15.625 14.0498 21.75 19.0311 24.025C19.3616 24.1718 19.7193 24.2476 20.0811 24.2476C20.4428 24.2476 20.8005 24.1718 21.1311 24.025C22.231 23.5101 23.2148 22.7769 24.0228 21.8702C24.8307 20.9634 25.4459 19.9018 25.8311 18.75C26.1428 17.7362 26.3172 16.6852 26.3498 15.625" stroke="#B20B18" stroke-width="1.25" stroke-linecap="round" stroke-linejoin="round"/>
<path d="M22.3874 9.32495C22.3874 9.32495 20.8312 12.1062 16.3437 12.1562H13.6499" stroke="#B20B18" stroke-width="1.25" stroke-linecap="round" stroke-linejoin="round"/>
<path d="M22.8252 11.1749C23.2269 11.8228 23.7993 12.3475 24.4795 12.6914C25.1597 13.0354 25.9216 13.1854 26.6814 13.1249" stroke="#B20B18" stroke-width="1.25" stroke-linecap="round" stroke-linejoin="round"/>
<path d="M10.3249 20V13C10.2955 10.4975 11.2265 8.07889 12.9262 6.24196C14.6259 4.40503 16.9651 3.28952 19.4624 3.12498C20.7625 3.06142 22.0619 3.26291 23.2817 3.71721C24.5015 4.17151 25.6162 4.86913 26.558 5.76765C27.4998 6.66617 28.249 7.74683 28.7601 8.94393C29.2712 10.141 29.5335 11.4296 29.5311 12.7312V22.0062" stroke="#B20B18" stroke-width="1.25" stroke-linecap="round" stroke-linejoin="round"/>
<path d="M13.7125 27.825L11.975 29.7875L14.3938 31.1125L11.875 32.4875L16.4188 36.875" stroke="#B20B18" stroke-width="1.25" stroke-linecap="round" stroke-linejoin="round"/>
<path d="M11.4375 26.1624C11.4377 25.5177 11.2614 24.8853 10.9277 24.3336C10.594 23.782 10.1157 23.3323 9.54453 23.0332C8.97341 22.7341 8.3313 22.597 7.68782 22.6369C7.04435 22.6768 6.42407 22.892 5.89425 23.2594C5.36443 23.6267 4.94528 24.1321 4.68225 24.7207C4.41922 25.3093 4.32236 25.9587 4.40215 26.5985C4.48195 27.2382 4.73537 27.8439 5.13492 28.3499C5.53448 28.8558 6.06493 29.2428 6.66875 29.4687V32.9499L7.425 33.7062L6.4875 34.6437L8.59375 36.7499C8.65318 36.8092 8.72882 36.8495 8.81112 36.8658C8.89343 36.8821 8.97872 36.8737 9.05625 36.8416C9.13378 36.8095 9.20008 36.7552 9.2468 36.6855C9.29351 36.6158 9.31855 36.5338 9.31875 36.4499V29.3749C9.94477 29.1017 10.4781 28.6529 10.8542 28.0827C11.2302 27.5125 11.4329 26.8455 11.4375 26.1624Z" stroke="#B20B18" stroke-width="1.25" stroke-linecap="round" stroke-linejoin="round"/>
<path d="M16.8751 23.0438C16.8751 23.0438 17.2501 25.9126 16.4126 27.1251" stroke="#B20B18" stroke-width="1.25" stroke-linecap="round" stroke-linejoin="round"/>
<path d="M22.8687 23.0438C22.8687 23.0438 22.5062 25.9126 23.3 27.1251" stroke="#B20B18" stroke-width="1.25" stroke-linecap="round" stroke-linejoin="round"/>
<path d="M11.4375 26.1624C11.4377 25.5177 11.2614 24.8853 10.9277 24.3336C10.594 23.782 10.1157 23.3323 9.54453 23.0332C8.97341 22.7341 8.3313 22.597 7.68782 22.6369C7.04435 22.6768 6.42407 22.892 5.89425 23.2594C5.36443 23.6267 4.94528 24.1321 4.68225 24.7207C4.41922 25.3093 4.32236 25.9587 4.40215 26.5985C4.48195 27.2382 4.73537 27.8439 5.13492 28.3499C5.53448 28.8558 6.06493 29.2428 6.66875 29.4687V32.9499L7.425 33.7062L6.4875 34.6437L8.59375 36.7499C8.65318 36.8092 8.72882 36.8495 8.81112 36.8658C8.89343 36.8821 8.97872 36.8737 9.05625 36.8416C9.13378 36.8095 9.20008 36.7552 9.2468 36.6855C9.29351 36.6158 9.31855 36.5338 9.31875 36.4499V29.3749C9.94477 29.1017 10.4781 28.6529 10.8542 28.0827C11.2302 27.5125 11.4329 26.8455 11.4375 26.1624Z" stroke="#B20B18" stroke-width="1.25" stroke-linecap="round" stroke-linejoin="round"/>
<path d="M31.2814 37.5188C34.7263 37.5188 37.5189 34.7262 37.5189 31.2813C37.5189 27.8364 34.7263 25.0438 31.2814 25.0438C27.8366 25.0438 25.0439 27.8364 25.0439 31.2813C25.0439 34.7262 27.8366 37.5188 31.2814 37.5188Z" stroke="#B20B18" stroke-width="1.25" stroke-linecap="round" stroke-linejoin="round"/>
<path d="M27.9248 30.8313L31.2811 28.15L34.6311 30.8313" stroke="#B20B18" stroke-width="1.25" stroke-linecap="round" stroke-linejoin="round"/>
<path d="M30.4375 34.4125V31.825H32.125V34.4125" stroke="#B20B18" stroke-width="1.25" stroke-linecap="round" stroke-linejoin="round"/>
<path d="M28.8188 30.2313V34.4126H33.7376V30.2313" stroke="#B20B18" stroke-width="1.25" stroke-linecap="round" stroke-linejoin="round"/>
<path d="M29.5498 29.4187V28.2562" stroke="#B20B18" stroke-width="1.25" stroke-linecap="round" stroke-linejoin="round"/>
</g>
<defs>
<clipPath id="clip0_714_1453">
<rect width="40" height="40" fill="white"/>
</clipPath>
</defs>
</svg>
