<svg width="40" height="40" viewBox="0 0 40 40" fill="none" xmlns="http://www.w3.org/2000/svg">
<path d="M20.0684 24.6437C25.2288 24.6437 29.4121 20.4604 29.4121 15.3C29.4121 10.1396 25.2288 5.95624 20.0684 5.95624C14.9079 5.95624 10.7246 10.1396 10.7246 15.3C10.7246 20.4604 14.9079 24.6437 20.0684 24.6437Z" fill="#F4D7D9"/>
<path d="M21.0933 11.1624C9.86833 8.71243 7.49958 14.7374 18.7496 17.1874L21.5933 18.0499C40.8246 22.2437 38.4996 32.9062 19.2683 28.7062" stroke="#B20B18" stroke-width="1.25" stroke-linecap="round" stroke-linejoin="round"/>
<path d="M14.4434 21.9938H18.8246V34.1625H5.19336V21.9938H10.0621" stroke="#B20B18" stroke-width="1.25" stroke-linecap="round" stroke-linejoin="round"/>
<path d="M5.19336 21.9937L7.14336 20.05H17.3621L18.8246 21.9937" stroke="#B20B18" stroke-width="1.25" stroke-linecap="round" stroke-linejoin="round"/>
<path d="M10.55 20.05L10.0625 21.9937" stroke="#B20B18" stroke-width="1.25" stroke-linecap="round" stroke-linejoin="round"/>
<path d="M13.9563 21.9937L13.4688 20.05" stroke="#B20B18" stroke-width="1.25" stroke-linecap="round" stroke-linejoin="round"/>
<path d="M7.35645 31.4125H8.82519" stroke="#B20B18" stroke-width="1.25" stroke-linecap="round" stroke-linejoin="round"/>
<path d="M7.35645 29.2188H10.8164" stroke="#B20B18" stroke-width="1.25" stroke-linecap="round" stroke-linejoin="round"/>
<path d="M7.36035 27H13.3604" stroke="#B20B18" stroke-width="1.25" stroke-linecap="round" stroke-linejoin="round"/>
<path d="M7.36035 25H16.3604" stroke="#B20B18" stroke-width="1.25" stroke-linecap="round" stroke-linejoin="round"/>
<path d="M23.3564 8.39376L29.2689 3.66251L35.1814 8.39376" stroke="#B20B18" stroke-width="1.25" stroke-linecap="round" stroke-linejoin="round"/>
<path d="M27.7812 14.7V10.1437H30.75V14.7" stroke="#B20B18" stroke-width="1.25" stroke-linecap="round" stroke-linejoin="round"/>
<path d="M24.9316 7.33124V14.7H33.6066V7.33124" stroke="#B20B18" stroke-width="1.25" stroke-linecap="round" stroke-linejoin="round"/>
<path d="M26.2188 5.90001V3.85001" stroke="#B20B18" stroke-width="1.25" stroke-linecap="round" stroke-linejoin="round"/>
</svg>
