<svg width="40" height="40" viewBox="0 0 40 40" fill="none" xmlns="http://www.w3.org/2000/svg">
<path d="M12.6748 22.6313C17.8352 22.6313 22.0186 18.4479 22.0186 13.2875C22.0186 8.12713 17.8352 3.94379 12.6748 3.94379C7.51439 3.94379 3.33105 8.12713 3.33105 13.2875C3.33105 18.4479 7.51439 22.6313 12.6748 22.6313Z" fill="#F4D7D9"/>
<path d="M31.4004 4.84375V5.59375" stroke="#B20B18" stroke-width="1.25" stroke-linecap="round" stroke-linejoin="round"/>
<path d="M34.3184 6.05621L33.7871 6.58746" stroke="#B20B18" stroke-width="1.25" stroke-linecap="round" stroke-linejoin="round"/>
<path d="M35.5254 8.9751H34.7754" stroke="#B20B18" stroke-width="1.25" stroke-linecap="round" stroke-linejoin="round"/>
<path d="M34.3184 11.8937L33.7871 11.3624" stroke="#B20B18" stroke-width="1.25" stroke-linecap="round" stroke-linejoin="round"/>
<path d="M31.4004 13.1V12.35" stroke="#B20B18" stroke-width="1.25" stroke-linecap="round" stroke-linejoin="round"/>
<path d="M28.4746 11.8937L29.0059 11.3624" stroke="#B20B18" stroke-width="1.25" stroke-linecap="round" stroke-linejoin="round"/>
<path d="M27.2686 8.97507H28.0186" stroke="#B20B18" stroke-width="1.25" stroke-linecap="round" stroke-linejoin="round"/>
<path d="M28.4746 6.05621L29.0059 6.58746" stroke="#B20B18" stroke-width="1.25" stroke-linecap="round" stroke-linejoin="round"/>
<path d="M31.4004 10.8501C32.4359 10.8501 33.2754 10.0106 33.2754 8.9751C33.2754 7.93956 32.4359 7.1001 31.4004 7.1001C30.3649 7.1001 29.5254 7.93956 29.5254 8.9751C29.5254 10.0106 30.3649 10.8501 31.4004 10.8501Z" stroke="#B20B18" stroke-width="1.25" stroke-linecap="round" stroke-linejoin="round"/>
<path d="M20.0625 10.3624C20.044 10.3501 20.0222 10.3435 20 10.3435C19.9778 10.3435 19.956 10.3501 19.9375 10.3624L8.6875 17.7937C8.49869 17.9152 8.34284 18.0815 8.2338 18.2777C8.12476 18.474 8.06592 18.6942 8.0625 18.9187C8.0625 19.2767 8.20473 19.6201 8.45791 19.8733C8.71108 20.1265 9.05446 20.2687 9.4125 20.2687H9.71875C9.97562 20.2676 10.2269 20.1939 10.4437 20.0562L20 13.9937L29.525 20.0562C29.7418 20.1939 29.9931 20.2676 30.25 20.2687H30.5562C30.9143 20.2687 31.2577 20.1265 31.5108 19.8733C31.764 19.6201 31.9063 19.2767 31.9063 18.9187C31.9028 18.6942 31.844 18.474 31.7349 18.2777C31.6259 18.0815 31.4701 17.9152 31.2813 17.7937L20.0625 10.3624Z" stroke="#B20B18" stroke-width="1.25" stroke-linecap="round" stroke-linejoin="round"/>
<path d="M9.98145 20.2687V30.0625" stroke="#B20B18" stroke-width="1.25" stroke-linecap="round" stroke-linejoin="round"/>
<path d="M33 32.9562H7V35.2812H33V32.9562Z" stroke="#B20B18" stroke-width="1.25" stroke-linecap="round" stroke-linejoin="round"/>
<path d="M10.5938 16.4875V12.3563H13.275V14.7688" stroke="#B20B18" stroke-width="1.25" stroke-linecap="round" stroke-linejoin="round"/>
<path d="M30.4004 30.325V20.9125" stroke="#B20B18" stroke-width="1.25" stroke-linecap="round" stroke-linejoin="round"/>
<path d="M14.5875 32.5437C14.5913 32.2511 14.5148 31.963 14.3663 31.7108C14.2178 31.4586 14.0029 31.252 13.7451 31.1134C13.4874 30.9749 13.1965 30.9097 12.9042 30.9249C12.612 30.9402 12.3295 31.0353 12.0875 31.2C11.8003 30.8463 11.4117 30.589 10.974 30.4627C10.5362 30.3364 10.0703 30.3471 9.6388 30.4934C9.20732 30.6397 8.83098 30.9146 8.56036 31.2812C8.28974 31.6477 8.13781 32.0883 8.125 32.5437" stroke="#B20B18" stroke-width="1.25" stroke-linecap="round" stroke-linejoin="round"/>
<path d="M25.1749 32.5437C25.1711 32.251 25.2476 31.9629 25.3961 31.7108C25.5447 31.4586 25.7595 31.252 26.0173 31.1134C26.2751 30.9748 26.5659 30.9096 26.8582 30.9249C27.1505 30.9401 27.433 31.0353 27.6749 31.1999C27.9554 30.8252 28.3469 30.5485 28.7938 30.4091C29.2406 30.2698 29.72 30.2749 30.1638 30.4237C30.6075 30.5726 30.9931 30.8576 31.2655 31.2382C31.5379 31.6188 31.6834 32.0756 31.6812 32.5437" stroke="#B20B18" stroke-width="1.25" stroke-linecap="round" stroke-linejoin="round"/>
<path d="M21.6936 19.4625C21.6936 18.5236 20.9338 17.7625 19.9967 17.7625C19.0595 17.7625 18.2998 18.5236 18.2998 19.4625C18.2998 20.4013 19.0595 21.1625 19.9967 21.1625C20.9338 21.1625 21.6936 20.4013 21.6936 19.4625Z" stroke="#B20B18" stroke-width="1.25" stroke-linecap="round" stroke-linejoin="round"/>
<path d="M17.75 32.8626V26.5376C17.75 26.2421 17.8082 25.9495 17.9213 25.6765C18.0343 25.4035 18.2001 25.1555 18.409 24.9466C18.6179 24.7376 18.866 24.5719 19.139 24.4588C19.4119 24.3458 19.7045 24.2876 20 24.2876C20.2955 24.2876 20.5881 24.3458 20.861 24.4588C21.134 24.5719 21.3821 24.7376 21.591 24.9466C21.7999 25.1555 21.9657 25.4035 22.0787 25.6765C22.1918 25.9495 22.25 26.2421 22.25 26.5376V32.8626" stroke="#B20B18" stroke-width="1.25" stroke-linecap="round" stroke-linejoin="round"/>
<path d="M15.6129 21.6687H12.1191V25.1687H15.6129V21.6687Z" stroke="#B20B18" stroke-width="1.25" stroke-linecap="round" stroke-linejoin="round"/>
<path d="M27.875 25.15V21.6687H24.375V25.1687H27.8813L27.875 25.15Z" stroke="#B20B18" stroke-width="1.25" stroke-linecap="round" stroke-linejoin="round"/>
</svg>
