<svg width="40" height="40" viewBox="0 0 40 40" fill="none" xmlns="http://www.w3.org/2000/svg">
<path d="M27.5498 25.6751C32.2097 25.6751 35.9873 21.8975 35.9873 17.2375C35.9873 12.5776 32.2097 8.80005 27.5498 8.80005C22.8899 8.80005 19.1123 12.5776 19.1123 17.2375C19.1123 21.8975 22.8899 25.6751 27.5498 25.6751Z" fill="#F4D7D9"/>
<path d="M29.4252 27.6187C29.8128 27.617 30.1968 27.6922 30.5551 27.84C30.9134 27.9877 31.2389 28.205 31.5127 28.4794C31.7864 28.7537 32.0031 29.0797 32.15 29.4383C32.297 29.7969 32.3714 30.1811 32.3689 30.5687V8.18118C32.3689 7.40045 32.0588 6.65169 31.5067 6.09963C30.9547 5.54757 30.2059 5.23743 29.4252 5.23743C28.6445 5.23743 27.8957 5.54757 27.3437 6.09963C26.7916 6.65169 26.4814 7.40045 26.4814 8.18118V29.9437" stroke="#B20B18" stroke-width="1.25" stroke-linecap="round" stroke-linejoin="round"/>
<path d="M6.38086 8.18115V33.5124H29.4246C29.8112 33.5124 30.194 33.4363 30.5511 33.2883C30.9083 33.1404 31.2328 32.9236 31.5062 32.6502C31.7795 32.3768 31.9963 32.0523 32.1443 31.6952C32.2922 31.338 32.3684 30.9552 32.3684 30.5687C32.3708 30.1811 32.2964 29.7969 32.1495 29.4383C32.0025 29.0796 31.7858 28.7537 31.5121 28.4794C31.2383 28.205 30.9129 27.9877 30.5545 27.8399C30.1962 27.6922 29.8122 27.617 29.4246 27.6187C28.7375 27.5922 28.0634 27.8118 27.5238 28.238C26.9841 28.6642 26.6143 29.2691 26.4809 29.9437V8.18115H6.38086Z" stroke="#B20B18" stroke-width="1.25" stroke-linecap="round" stroke-linejoin="round"/>
<path d="M10.2939 15.8499L14.4439 12.5311L18.5939 15.8499" stroke="#B20B18" stroke-width="1.25" stroke-linecap="round" stroke-linejoin="round"/>
<path d="M13.4004 20.2813V17.0813H15.4816V20.2813" stroke="#B20B18" stroke-width="1.25" stroke-linecap="round" stroke-linejoin="round"/>
<path d="M11.4004 15.1062V20.2812H17.4879V15.1062" stroke="#B20B18" stroke-width="1.25" stroke-linecap="round" stroke-linejoin="round"/>
<path d="M12.3066 14.0999V12.6624" stroke="#B20B18" stroke-width="1.25" stroke-linecap="round" stroke-linejoin="round"/>
<path d="M19.5312 29.2374H21.9937" stroke="#B20B18" stroke-width="1.25" stroke-linecap="round" stroke-linejoin="round"/>
<path d="M10.2939 29.8375L12.0064 26.9812H12.0627V29C12.0633 29.0185 12.069 29.0366 12.0792 29.0521C12.0895 29.0676 12.1039 29.0799 12.1207 29.0877C12.1376 29.0955 12.1563 29.0984 12.1748 29.0962C12.1932 29.0939 12.2107 29.0866 12.2252 29.075L13.2377 28.0625V29.25L14.4127 28.075C14.4127 28.075 14.4127 29.25 16.1814 29.25H17.2064" stroke="#B20B18" stroke-width="1.25" stroke-linecap="round" stroke-linejoin="round"/>
<path d="M22.0186 12.4313V20.8001" stroke="#B20B18" stroke-width="1.25" stroke-linecap="round" stroke-linejoin="round"/>
<path d="M21.4434 12.1438H22.0059" stroke="#B20B18" stroke-width="1.25" stroke-linecap="round" stroke-linejoin="round"/>
<path d="M21.4434 20.9751H22.0059" stroke="#B20B18" stroke-width="1.25" stroke-linecap="round" stroke-linejoin="round"/>
<path d="M21.7314 23.9188H11.0127" stroke="#B20B18" stroke-width="1.25" stroke-linecap="round" stroke-linejoin="round"/>
<path d="M22.0254 23.3374V23.9187" stroke="#B20B18" stroke-width="1.25" stroke-linecap="round" stroke-linejoin="round"/>
<path d="M10.8311 23.3374V23.9187" stroke="#B20B18" stroke-width="1.25" stroke-linecap="round" stroke-linejoin="round"/>
</svg>
