<svg width="40" height="40" viewBox="0 0 40 40" fill="none" xmlns="http://www.w3.org/2000/svg">
<path d="M14.5 33C20.8513 33 26 28.0751 26 22C26 15.9249 20.8513 11 14.5 11C8.14873 11 3 15.9249 3 22C3 28.0751 8.14873 33 14.5 33Z" fill="#F4D7D9"/>
<path d="M16 22L14 17" stroke="#B20B18" stroke-width="1.25" stroke-linecap="round" stroke-linejoin="round"/>
<path d="M18 16L19.3816 20.9L19.8068 22.3092L20 23" stroke="#B20B18" stroke-width="1.25" stroke-linecap="round" stroke-linejoin="round"/>
<path d="M21.2285 30L21.9121 32.7883C21.9804 33.0023 22.0095 33.2305 21.9973 33.4582C21.9851 33.686 21.9321 33.9083 21.8414 34.111C21.7508 34.3138 21.6246 34.4925 21.4709 34.6357C21.3172 34.779 21.1394 34.8837 20.9488 34.9432C20.7581 35.0027 20.5589 35.0156 20.3636 34.9812C20.1684 34.9468 19.9816 34.8657 19.815 34.7433C19.6483 34.6208 19.5056 34.4596 19.3959 34.2698C19.2862 34.0801 19.2119 33.8661 19.1777 33.6413L19 32.8515" stroke="#B20B18" stroke-width="1.25" stroke-linecap="round" stroke-linejoin="round"/>
<path d="M21.4337 27.1269L21.2665 24.5514L19.4612 21.6477C19.1947 21.2214 19.0383 20.7348 19.0062 20.232C18.9741 19.7293 19.0673 19.2265 19.2774 18.7693L19.4529 18.3906C19.4978 18.2906 19.5667 18.2034 19.6532 18.1367C19.7398 18.0701 19.8414 18.026 19.949 18.0085C20.0566 17.991 20.1668 18.0006 20.2698 18.0364C20.3728 18.0722 20.4654 18.1332 20.5394 18.2138L26.1642 24.3578L27 32" stroke="#B20B18" stroke-width="1.25" stroke-linecap="round" stroke-linejoin="round"/>
<path d="M21 24.8688C20.7817 24.9825 20.5342 25.0238 20.2919 24.9869H20.238H20.0533L16.6129 24.5384L16.0587 24.4676L15.8663 24.4204C15.6969 24.3683 15.5404 24.2794 15.4076 24.16C15.2748 24.0405 15.1687 23.8931 15.0966 23.728C15.0103 23.5224 14.981 23.2965 15.012 23.075C15.0438 22.822 15.1509 22.5851 15.3189 22.3965C15.4869 22.2079 15.7075 22.0767 15.951 22.0207C16.0882 21.9931 16.2294 21.9931 16.3666 22.0207L19.3606 22.4141H19.5761" stroke="#B20B18" stroke-width="1.25" stroke-linecap="round" stroke-linejoin="round"/>
<path d="M19.8832 27.977C20.6094 28.0715 21.2746 27.5594 21.369 26.8332C21.4635 26.1071 20.9514 25.4419 20.2252 25.3474L15.6151 24.7479C14.889 24.6534 14.2237 25.1655 14.1293 25.8917C14.0349 26.6178 14.547 27.283 15.2731 27.3775L19.8832 27.977Z" stroke="#B20B18" stroke-width="1.25" stroke-linecap="round" stroke-linejoin="round"/>
<path d="M20.1772 30.689C20.9033 30.7834 21.5685 30.2713 21.663 29.5451C21.7574 28.819 21.2453 28.1538 20.5192 28.0593L15.909 27.4598C15.1829 27.3653 14.5177 27.8774 14.4232 28.6036C14.3288 29.3297 14.8409 29.9949 15.5671 30.0894L20.1772 30.689Z" stroke="#B20B18" stroke-width="1.25" stroke-linecap="round" stroke-linejoin="round"/>
<path d="M18.988 31.8746C19.0113 31.7036 19.0005 31.5296 18.9562 31.3628C18.9119 31.196 18.8349 31.0396 18.7298 30.9027C18.6247 30.7658 18.4934 30.6512 18.3437 30.5654C18.194 30.4796 18.0288 30.4243 17.8575 30.4028L15.4802 30.012C15.3092 29.9886 15.1353 29.9995 14.9686 30.0438C14.8018 30.0881 14.6455 30.1651 14.5087 30.2703C14.3718 30.3755 14.2572 30.5067 14.1714 30.6565C14.0857 30.8063 14.0304 30.9716 14.0089 31.1428C13.9688 31.4853 14.0649 31.8297 14.2763 32.102C14.4878 32.3742 14.7978 32.5523 15.1394 32.598L17.5251 32.9888C17.8665 33.0338 18.212 32.9419 18.486 32.7332C18.7601 32.5245 18.9405 32.2158 18.988 31.8746Z" stroke="#B20B18" stroke-width="1.25" stroke-linecap="round" stroke-linejoin="round"/>
<path d="M16 33C16 33 16.8242 36.4971 18.8352 37.3457C20.8462 38.1943 21.7692 38.6571 22 39" stroke="#B20B18" stroke-width="1.25" stroke-linecap="round" stroke-linejoin="round"/>
<path d="M14 17C18.4183 17 22 13.4183 22 9C22 4.58172 18.4183 1 14 1C9.58172 1 6 4.58172 6 9C6 13.4183 9.58172 17 14 17Z" stroke="#B20B18" stroke-width="1.25" stroke-linecap="round" stroke-linejoin="round"/>
<path d="M15.8192 7.58257C15.6773 7.39278 15.4887 7.24026 15.2706 7.13883C15.0524 7.0374 14.8116 6.99026 14.5699 7.00167C13.3945 7.00167 13.1479 7.71785 13.1479 8.21121C13.1479 8.70457 13.4192 9.16611 14.5041 9.42075C15.7534 9.71517 16 10.2165 16 10.8531C15.9568 11.1957 15.7751 11.5079 15.4948 11.7211C15.2144 11.9344 14.8582 12.0314 14.5041 11.991C14.1874 12.021 13.8692 11.9503 13.5978 11.7895C13.3263 11.6286 13.1165 11.3865 13 11.0998" stroke="#B20B18" stroke-width="1.25" stroke-linecap="round" stroke-linejoin="round"/>
<path d="M14 7V6" stroke="#B20B18" stroke-width="1.25" stroke-linecap="round" stroke-linejoin="round"/>
</svg>
