<svg width="40" height="40" viewBox="0 0 40 40" fill="none" xmlns="http://www.w3.org/2000/svg">
<path d="M27.5869 32.9937C32.2468 32.9937 36.0244 29.2161 36.0244 24.5562C36.0244 19.8962 32.2468 16.1187 27.5869 16.1187C22.927 16.1187 19.1494 19.8962 19.1494 24.5562C19.1494 29.2161 22.927 32.9937 27.5869 32.9937Z" fill="#F4D7D9"/>
<path d="M12.4004 19.0438L13.4004 15.3" stroke="#B20B18" stroke-width="1.25" stroke-linecap="round" stroke-linejoin="round"/>
<path d="M10.9 14.5621L10 17.8871L9.74375 18.8621L9.625 19.3309" stroke="#B20B18" stroke-width="1.25" stroke-linecap="round" stroke-linejoin="round"/>
<path d="M11.3193 23.0933V23.0876" stroke="#B20B18" stroke-width="1.25" stroke-linecap="round" stroke-linejoin="round"/>
<path d="M8.12492 24.9001L7.53742 27.1064C7.47492 27.2758 7.44838 27.4563 7.4595 27.6365C7.47062 27.8167 7.51916 27.9926 7.60201 28.1531C7.68487 28.3135 7.80023 28.4549 7.94075 28.5682C8.08127 28.6816 8.24386 28.7645 8.41817 28.8115C8.59247 28.8586 8.77467 28.8688 8.95315 28.8416C9.13163 28.8143 9.30248 28.7502 9.45482 28.6533C9.60715 28.5564 9.73763 28.4288 9.83794 28.2787C9.93824 28.1286 10.0062 27.9592 10.0374 27.7814L10.1999 27.1564" stroke="#B20B18" stroke-width="1.25" stroke-linecap="round" stroke-linejoin="round"/>
<path d="M9.0752 21.4071L9.08163 21.3878" stroke="#B20B18" stroke-width="1.25" stroke-linecap="round" stroke-linejoin="round"/>
<path d="M11.8623 21.0442L11.8687 21.0378V21.0249" stroke="#B20B18" stroke-width="1.25" stroke-linecap="round" stroke-linejoin="round"/>
<path d="M8.19961 23.069L8.31836 21.1565L9.67461 19.0002C9.87121 18.6849 9.98667 18.3258 10.0107 17.955C10.0347 17.5842 9.96644 17.2132 9.81211 16.8752L9.68086 16.594C9.64661 16.5202 9.59466 16.456 9.52962 16.4071C9.46459 16.3583 9.38849 16.3262 9.30809 16.3138C9.22769 16.3015 9.14547 16.3092 9.06876 16.3362C8.99205 16.3633 8.9232 16.4089 8.86836 16.469L4.66211 21.0315L4.03711 26.7002" stroke="#B20B18" stroke-width="1.25" stroke-linecap="round" stroke-linejoin="round"/>
<path d="M8.30664 21.3374C8.48563 21.4223 8.68497 21.4548 8.88164 21.4311H8.92539H9.07539L11.8754 21.0436L12.3254 20.9874H12.4816C12.6194 20.9464 12.7466 20.876 12.8545 20.781C12.9624 20.686 13.0484 20.5688 13.1066 20.4374C13.1759 20.2738 13.2017 20.0951 13.1816 19.9186C13.1558 19.7177 13.0688 19.5295 12.9324 19.3797C12.796 19.2299 12.6168 19.1257 12.4191 19.0811C12.3056 19.0592 12.1889 19.0592 12.0754 19.0811L9.65039 19.3936H9.46914" stroke="#B20B18" stroke-width="1.25" stroke-linecap="round" stroke-linejoin="round"/>
<path d="M12.7696 22.9018C13.3104 22.8314 13.6918 22.336 13.6215 21.7952C13.5512 21.2543 13.0557 20.8729 12.5149 20.9433L9.0813 21.3898C8.54048 21.4602 8.15907 21.9556 8.22941 22.4964C8.29975 23.0373 8.79519 23.4187 9.33602 23.3483L12.7696 22.9018Z" stroke="#B20B18" stroke-width="1.25" stroke-linecap="round" stroke-linejoin="round"/>
<path d="M12.545 24.9141C13.0858 24.8438 13.4672 24.3483 13.3969 23.8075C13.3266 23.2667 12.8311 22.8853 12.2903 22.9556L8.8567 23.4022C8.31587 23.4725 7.93446 23.9679 8.0048 24.5088C8.07514 25.0496 8.57058 25.431 9.11141 25.3607L12.545 24.9141Z" stroke="#B20B18" stroke-width="1.25" stroke-linecap="round" stroke-linejoin="round"/>
<path d="M9.67523 26.4247C9.64153 26.1654 9.7121 25.9032 9.87145 25.6958C10.0308 25.4884 10.2659 25.3527 10.5252 25.3185L12.319 24.9997C12.4475 24.9822 12.5783 24.9903 12.7037 25.0236C12.8291 25.057 12.9466 25.1148 13.0495 25.1939C13.1524 25.2729 13.2385 25.3716 13.303 25.4842C13.3675 25.5967 13.4091 25.721 13.4252 25.8497C13.4572 26.1088 13.386 26.3701 13.227 26.5771C13.0679 26.7841 12.8338 26.9202 12.5752 26.956L10.7815 27.2497C10.5259 27.2839 10.267 27.2167 10.0603 27.0625C9.85361 26.9084 9.71539 26.6795 9.67523 26.4247Z" stroke="#B20B18" stroke-width="1.25" stroke-linecap="round" stroke-linejoin="round"/>
<path d="M12.5752 26.9813C12.5752 26.9813 11.9502 29.5313 10.4252 30.1501C8.9002 30.7688 8.2877 31.0001 8.1252 31.2501C7.9627 31.5001 7.7002 31.8751 7.7002 31.8751L3.04395 28.4938" stroke="#B20B18" stroke-width="1.25" stroke-linecap="round" stroke-linejoin="round"/>
<path d="M6.68144 36.2814L8.10019 32.1814L3.04395 28.4939" stroke="#B20B18" stroke-width="1.25" stroke-linecap="round" stroke-linejoin="round"/>
<path d="M13.8252 15.3125C17.1907 15.3125 19.9189 12.5842 19.9189 9.21875C19.9189 5.85326 17.1907 3.125 13.8252 3.125C10.4597 3.125 7.73145 5.85326 7.73145 9.21875C7.73145 12.5842 10.4597 15.3125 13.8252 15.3125Z" stroke="#B20B18" stroke-width="1.25" stroke-linecap="round" stroke-linejoin="round"/>
<path d="M28.5869 24.5748L27.5869 20.8311" stroke="#B20B18" stroke-width="1.25" stroke-linecap="round" stroke-linejoin="round"/>
<path d="M30.0811 20.0939L30.9748 23.4189L31.2498 24.3751L31.3748 24.8439" stroke="#B20B18" stroke-width="1.25" stroke-linecap="round" stroke-linejoin="round"/>
<path d="M29.6677 28.6243L29.6621 28.6187" stroke="#B20B18" stroke-width="1.25" stroke-linecap="round" stroke-linejoin="round"/>
<path d="M32.8373 30.4313L33.4623 32.6375C33.5248 32.8069 33.5513 32.9875 33.5402 33.1677C33.5291 33.3479 33.4806 33.5238 33.3977 33.6842C33.3149 33.8446 33.1995 33.986 33.059 34.0994C32.9185 34.2127 32.7559 34.2956 32.5816 34.3426C32.4073 34.3897 32.2251 34.3999 32.0466 34.3727C31.8681 34.3455 31.6972 34.2814 31.5449 34.1844C31.3926 34.0875 31.2621 33.96 31.1618 33.8098C31.0615 33.6597 30.9935 33.4903 30.9623 33.3125L30.7998 32.6875" stroke="#B20B18" stroke-width="1.25" stroke-linecap="round" stroke-linejoin="round"/>
<path d="M31.9125 26.9374L31.9062 26.9249" stroke="#B20B18" stroke-width="1.25" stroke-linecap="round" stroke-linejoin="round"/>
<path d="M29.1191 26.5758V26.5565" stroke="#B20B18" stroke-width="1.25" stroke-linecap="round" stroke-linejoin="round"/>
<path d="M32.7877 28.5999L32.6627 26.6874L31.3127 24.5312C31.1134 24.2146 30.9964 23.8532 30.9724 23.4799C30.9484 23.1066 31.0181 22.7332 31.1752 22.3937L31.3064 22.1124C31.3401 22.0382 31.3915 21.9734 31.4563 21.9239C31.521 21.8744 31.597 21.8417 31.6774 21.8287C31.7579 21.8157 31.8403 21.8228 31.9174 21.8494C31.9944 21.876 32.0636 21.9213 32.1189 21.9812L36.3252 26.5437L36.9502 32.2187" stroke="#B20B18" stroke-width="1.25" stroke-linecap="round" stroke-linejoin="round"/>
<path d="M32.6808 26.8746C32.5036 26.9649 32.3026 26.9977 32.1058 26.9684H32.0621H31.9121L29.1183 26.6121L28.6683 26.5559L28.5121 26.5184C28.3745 26.477 28.2475 26.4064 28.1396 26.3115C28.0317 26.2166 27.9456 26.0996 27.8871 25.9684C27.817 25.805 27.7932 25.6256 27.8183 25.4496C27.8441 25.2487 27.9312 25.0605 28.0676 24.9107C28.204 24.7609 28.3831 24.6566 28.5808 24.6121C28.6922 24.5902 28.8069 24.5902 28.9183 24.6121L31.3496 24.9246H31.5246" stroke="#B20B18" stroke-width="1.25" stroke-linecap="round" stroke-linejoin="round"/>
<path d="M31.6498 28.8814C32.1906 28.9518 32.6861 28.5704 32.7564 28.0295C32.8268 27.4887 32.4454 26.9933 31.9045 26.9229L28.471 26.4764C27.9301 26.406 27.4347 26.7875 27.3643 27.3283C27.294 27.8691 27.6754 28.3646 28.2162 28.4349L31.6498 28.8814Z" stroke="#B20B18" stroke-width="1.25" stroke-linecap="round" stroke-linejoin="round"/>
<path d="M31.8686 30.9012C32.4094 30.9716 32.9048 30.5901 32.9752 30.0493C33.0455 29.5085 32.6641 29.013 32.1233 28.9427L28.6897 28.4962C28.1489 28.4258 27.6534 28.8072 27.5831 29.3481C27.5128 29.8889 27.8942 30.3843 28.435 30.4547L31.8686 30.9012Z" stroke="#B20B18" stroke-width="1.25" stroke-linecap="round" stroke-linejoin="round"/>
<path d="M31.3061 31.9564C31.3237 31.8278 31.3155 31.6971 31.2822 31.5717C31.2489 31.4463 31.191 31.3288 31.112 31.2259C31.0329 31.123 30.9343 31.0368 30.8217 30.9723C30.7091 30.9078 30.5849 30.8663 30.4561 30.8501L28.6686 30.5564C28.5401 30.5388 28.4093 30.547 28.2839 30.5803C28.1585 30.6136 28.041 30.6715 27.9381 30.7505C27.8353 30.8296 27.7491 30.9282 27.6846 31.0408C27.6201 31.1534 27.5785 31.2776 27.5624 31.4064C27.5322 31.6637 27.6044 31.9227 27.7634 32.1273C27.9225 32.3319 28.1555 32.4658 28.4124 32.5001L30.2061 32.7939C30.4629 32.8277 30.7226 32.7586 30.9287 32.6017C31.1347 32.4449 31.2704 32.2129 31.3061 31.9564Z" stroke="#B20B18" stroke-width="1.25" stroke-linecap="round" stroke-linejoin="round"/>
<path d="M28.4121 32.5C28.4121 32.5 29.0371 35.05 30.5621 35.6687C32.0871 36.2875 32.7871 36.625 32.9621 36.875" stroke="#B20B18" stroke-width="1.25" stroke-linecap="round" stroke-linejoin="round"/>
<path d="M27.1621 20.8437C30.5276 20.8437 33.2559 18.1155 33.2559 14.75C33.2559 11.3845 30.5276 8.65625 27.1621 8.65625C23.7966 8.65625 21.0684 11.3845 21.0684 14.75C21.0684 18.1155 23.7966 20.8437 27.1621 20.8437Z" stroke="#B20B18" stroke-width="1.25" stroke-linecap="round" stroke-linejoin="round"/>
<path d="M14.9 7.81886C14.793 7.66688 14.6491 7.54466 14.4818 7.46373C14.3145 7.38281 14.1293 7.34586 13.9438 7.35636C13.0437 7.35636 12.8563 7.91886 12.8563 8.31261C12.8563 8.70636 13.0625 9.06261 13.8875 9.25636C14.8375 9.48761 15.0312 9.88136 15.0312 10.3876C14.9895 10.6515 14.8469 10.889 14.6336 11.0499C14.4202 11.2108 14.1527 11.2825 13.8875 11.2501C13.6483 11.2738 13.4078 11.2189 13.2026 11.0937C12.9974 10.9685 12.8385 10.7799 12.75 10.5564" stroke="#B20B18" stroke-width="1.25" stroke-linecap="round" stroke-linejoin="round"/>
<path d="M13.9434 7.3562V6.88745" stroke="#B20B18" stroke-width="1.25" stroke-linecap="round" stroke-linejoin="round"/>
<path d="M13.9434 11.7499V11.2749" stroke="#B20B18" stroke-width="1.25" stroke-linecap="round" stroke-linejoin="round"/>
<path d="M28.4504 13.3438C28.3425 13.1947 28.1991 13.0749 28.0332 12.9953C27.8673 12.9156 27.6842 12.8786 27.5004 12.8875C26.6066 12.8875 26.4191 13.45 26.4191 13.8375C26.4191 14.225 26.6254 14.5875 27.4504 14.7875C28.4004 15.0188 28.5879 15.4125 28.5879 15.9125C28.555 16.1817 28.4169 16.4268 28.2037 16.5943C27.9905 16.7618 27.7196 16.838 27.4504 16.8063C27.2096 16.8299 26.9676 16.7743 26.7612 16.648C26.5548 16.5217 26.3952 16.3315 26.3066 16.1063" stroke="#B20B18" stroke-width="1.25" stroke-linecap="round" stroke-linejoin="round"/>
<path d="M27.4873 12.8876V12.4126" stroke="#B20B18" stroke-width="1.25" stroke-linecap="round" stroke-linejoin="round"/>
<path d="M27.4873 17.2812V16.8062" stroke="#B20B18" stroke-width="1.25" stroke-linecap="round" stroke-linejoin="round"/>
</svg>
