<svg width="40" height="40" viewBox="0 0 40 40" fill="none" xmlns="http://www.w3.org/2000/svg">
<path d="M11.7002 23.5313C16.3601 23.5313 20.1377 19.7537 20.1377 15.0938C20.1377 10.4338 16.3601 6.65625 11.7002 6.65625C7.04029 6.65625 3.2627 10.4338 3.2627 15.0938C3.2627 19.7537 7.04029 23.5313 11.7002 23.5313Z" fill="#F4D7D9"/>
<path d="M22.1875 14.5063V17.4188" stroke="#B20B18" stroke-width="1.25" stroke-linecap="round" stroke-linejoin="round"/>
<path d="M17.8125 17.4188V14.5063" stroke="#B20B18" stroke-width="1.25" stroke-linecap="round" stroke-linejoin="round"/>
<path d="M22.1875 27.0063V30.5438" stroke="#B20B18" stroke-width="1.25" stroke-linecap="round" stroke-linejoin="round"/>
<path d="M17.8125 30.5438V27.0063" stroke="#B20B18" stroke-width="1.25" stroke-linecap="round" stroke-linejoin="round"/>
<path d="M30.9684 14.5063H27.2246V30.5501H30.9684V14.5063Z" stroke="#B20B18" stroke-width="1.25" stroke-linecap="round" stroke-linejoin="round"/>
<path d="M12.7691 14.5063H9.02539V30.5501H12.7691V14.5063Z" stroke="#B20B18" stroke-width="1.25" stroke-linecap="round" stroke-linejoin="round"/>
<path d="M32.3434 30.5439H7.66211V32.5252H32.3434V30.5439Z" stroke="#B20B18" stroke-width="1.25" stroke-linecap="round" stroke-linejoin="round"/>
<path d="M33.5934 32.5312H6.41211V34.5125H33.5934V32.5312Z" stroke="#B20B18" stroke-width="1.25" stroke-linecap="round" stroke-linejoin="round"/>
<path d="M32.9684 12.5312H7.03711V14.5125H32.9684V12.5312Z" stroke="#B20B18" stroke-width="1.25" stroke-linecap="round" stroke-linejoin="round"/>
<path d="M6.49316 12.5436L19.9994 5.4873L33.4994 12.5436" stroke="#B20B18" stroke-width="1.25" stroke-linecap="round" stroke-linejoin="round"/>
<path d="M20.0002 27.2997C22.7375 27.2997 24.9564 25.0807 24.9564 22.3435C24.9564 19.6062 22.7375 17.3872 20.0002 17.3872C17.2629 17.3872 15.0439 19.6062 15.0439 22.3435C15.0439 25.0807 17.2629 27.2997 20.0002 27.2997Z" stroke="#B20B18" stroke-width="1.25" stroke-linecap="round" stroke-linejoin="round"/>
<path d="M21.0127 20.8438C20.9047 20.6913 20.7597 20.5688 20.5913 20.4879C20.4229 20.407 20.2367 20.3703 20.0502 20.3813C19.1564 20.3813 18.9689 20.95 18.9689 21.3375C18.9689 21.725 19.1752 22.0875 20.0002 22.2875C20.9502 22.5125 21.1439 22.9125 21.1439 23.4125C21.1081 23.6811 20.968 23.9247 20.754 24.0907C20.54 24.2568 20.2692 24.332 20.0002 24.3001C19.7603 24.3231 19.5193 24.268 19.3132 24.1429C19.1071 24.0179 18.9469 23.8297 18.8564 23.6063" stroke="#B20B18" stroke-width="1.25" stroke-linecap="round" stroke-linejoin="round"/>
<path d="M20.0498 20.3809V19.9121" stroke="#B20B18" stroke-width="1.25" stroke-linecap="round" stroke-linejoin="round"/>
<path d="M20.0498 24.7748V24.2998" stroke="#B20B18" stroke-width="1.25" stroke-linecap="round" stroke-linejoin="round"/>
<path d="M19.9123 10.6061C20.5958 10.6061 21.1498 10.0521 21.1498 9.3686C21.1498 8.68515 20.5958 8.1311 19.9123 8.1311C19.2289 8.1311 18.6748 8.68515 18.6748 9.3686C18.6748 10.0521 19.2289 10.6061 19.9123 10.6061Z" stroke="#B20B18" stroke-width="1.25" stroke-linecap="round" stroke-linejoin="round"/>
</svg>
