<svg width="36" height="34" viewBox="0 0 36 34" fill="none" xmlns="http://www.w3.org/2000/svg">
<path d="M10.0778 27.1808C15.0914 27.1808 19.1557 23.1165 19.1557 18.103C19.1557 13.0894 15.0914 9.02515 10.0778 9.02515C5.06429 9.02515 1 13.0894 1 18.103C1 23.1165 5.06429 27.1808 10.0778 27.1808Z" fill="#F4D7D9"/>
<path d="M14.234 12.8713L1.45779 25.6476C1.4152 25.6884 1.38132 25.7375 1.3582 25.7918C1.33509 25.8461 1.32322 25.9046 1.32331 25.9636L1.26951 28.7273C1.2667 28.7884 1.27655 28.8494 1.29845 28.9065C1.32034 28.9637 1.35381 29.0156 1.39675 29.0592C1.43969 29.1028 1.49117 29.137 1.54796 29.1597C1.60475 29.1825 1.66563 29.1932 1.72677 29.1913L4.49046 29.1375C4.60636 29.1312 4.71613 29.0835 4.79978 29.003L5.30411 28.4987C5.37114 28.4335 5.41585 28.3487 5.43187 28.2566L5.76136 26.3267C5.77779 26.2346 5.82205 26.1498 5.88818 26.0837C5.95431 26.0176 6.03913 25.9733 6.1312 25.9569L7.89297 25.6543C7.98504 25.6379 8.06986 25.5936 8.13599 25.5275C8.20212 25.4613 8.24639 25.3765 8.26281 25.2844L8.56541 23.5227C8.58183 23.4306 8.62609 23.3458 8.69222 23.2797C8.75836 23.2135 8.84317 23.1693 8.93524 23.1528L10.8651 22.8233C10.9587 22.8058 11.0451 22.7614 11.1139 22.6956L17.5827 16.2268" stroke="#B20B18" stroke-width="1.34487" stroke-linecap="round" stroke-linejoin="round"/>
<path d="M34.7628 24.0542L26.9895 17.9619L19.2095 24.0542" stroke="#B20B18" stroke-width="1.34487" stroke-linecap="round" stroke-linejoin="round"/>
<path d="M28.8318 33.0643V27.2275H25.2612V33.0643" stroke="#B20B18" stroke-width="1.34487" stroke-linecap="round" stroke-linejoin="round"/>
<path d="M33.183 23.2068V33.0646H20.79V23.2068" stroke="#B20B18" stroke-width="1.34487" stroke-linecap="round" stroke-linejoin="round"/>
<path d="M21.3809 17.2219C25.8783 17.2219 29.5241 13.576 29.5241 9.07871C29.5241 4.58136 25.8783 0.935547 21.3809 0.935547C16.8836 0.935547 13.2378 4.58136 13.2378 9.07871C13.2378 13.576 16.8836 17.2219 21.3809 17.2219Z" stroke="#B20B18" stroke-width="1.34487" stroke-linecap="round" stroke-linejoin="round"/>
<path d="M23.3988 9.36116C24.6689 9.36116 25.6986 8.33154 25.6986 7.06144C25.6986 5.79134 24.6689 4.76172 23.3988 4.76172C22.1287 4.76172 21.0991 5.79134 21.0991 7.06144C21.0991 8.33154 22.1287 9.36116 23.3988 9.36116Z" stroke="#B20B18" stroke-width="1.34487" stroke-linecap="round" stroke-linejoin="round"/>
<path d="M28.6573 19.1317C29.0199 17.1941 28.8787 15.1959 28.2471 13.3286" stroke="#B20B18" stroke-width="1.34487" stroke-linecap="round" stroke-linejoin="round"/>
<path d="M24.7767 7.84155C24.4972 7.61718 24.1704 7.45939 23.8208 7.38017C23.4713 7.30094 23.1083 7.30236 22.7594 7.3843C20.9102 7.94914 20.3656 11.5265 21.5356 15.3795C22.7056 19.2326 25.1667 21.8887 27.0159 21.3238C27.2677 21.2453 27.4978 21.1095 27.6883 20.9271" stroke="#B20B18" stroke-width="1.34487" stroke-linecap="round" stroke-linejoin="round"/>
<path d="M27.0569 23.6771C27.8591 23.6771 28.5094 23.0268 28.5094 22.2247C28.5094 21.4225 27.8591 20.7722 27.0569 20.7722C26.2548 20.7722 25.6045 21.4225 25.6045 22.2247C25.6045 23.0268 26.2548 23.6771 27.0569 23.6771Z" stroke="#B20B18" stroke-width="1.34487" stroke-linecap="round" stroke-linejoin="round"/>
</svg>
