<svg width="40" height="40" viewBox="0 0 40 40" fill="none" xmlns="http://www.w3.org/2000/svg">
<path d="M20 21.625C24.6599 21.625 28.4375 17.8474 28.4375 13.1875C28.4375 8.5276 24.6599 4.75 20 4.75C15.3401 4.75 11.5625 8.5276 11.5625 13.1875C11.5625 17.8474 15.3401 21.625 20 21.625Z" fill="#F4D7D9"/>
<path d="M9.4748 12.3438H4.39355V16.175H9.4748V12.3438Z" stroke="#B20B18" stroke-width="1.25" stroke-linecap="round" stroke-linejoin="round"/>
<path d="M35.6061 12.3438H31.1436V16.175H35.6061V12.3438Z" stroke="#B20B18" stroke-width="1.25" stroke-linecap="round" stroke-linejoin="round"/>
<path d="M16.6937 12.3438H9.46875V16.175H16.6937V12.3438Z" stroke="#B20B18" stroke-width="1.25" stroke-linecap="round" stroke-linejoin="round"/>
<path d="M23.9184 12.3438H16.6934V16.175H23.9184V12.3438Z" stroke="#B20B18" stroke-width="1.25" stroke-linecap="round" stroke-linejoin="round"/>
<path d="M31.1439 12.3438H23.9189V16.175H31.1439V12.3438Z" stroke="#B20B18" stroke-width="1.25" stroke-linecap="round" stroke-linejoin="round"/>
<path d="M12.8686 16.1748H4.39355V20.0061H12.8686V16.1748Z" stroke="#B20B18" stroke-width="1.25" stroke-linecap="round" stroke-linejoin="round"/>
<path d="M9.4748 20H4.39355V23.8313H9.4748V20Z" stroke="#B20B18" stroke-width="1.25" stroke-linecap="round" stroke-linejoin="round"/>
<path d="M35.6061 20H31.1436V23.8313H35.6061V20Z" stroke="#B20B18" stroke-width="1.25" stroke-linecap="round" stroke-linejoin="round"/>
<path d="M20.0941 16.1748H12.8691V20.0061H20.0941V16.1748Z" stroke="#B20B18" stroke-width="1.25" stroke-linecap="round" stroke-linejoin="round"/>
<path d="M16.6937 20H9.46875V23.8313H16.6937V20Z" stroke="#B20B18" stroke-width="1.25" stroke-linecap="round" stroke-linejoin="round"/>
<path d="M23.9184 20H16.6934V23.8313H23.9184V20Z" stroke="#B20B18" stroke-width="1.25" stroke-linecap="round" stroke-linejoin="round"/>
<path d="M31.1439 20H23.9189V23.8313H31.1439V20Z" stroke="#B20B18" stroke-width="1.25" stroke-linecap="round" stroke-linejoin="round"/>
<path d="M27.3187 16.1748H20.0938V20.0061H27.3187V16.1748Z" stroke="#B20B18" stroke-width="1.25" stroke-linecap="round" stroke-linejoin="round"/>
<path d="M35.6063 16.1689H27.3125V20.0002H35.6063V16.1689Z" stroke="#B20B18" stroke-width="1.25" stroke-linecap="round" stroke-linejoin="round"/>
<path d="M12.8686 23.8311H4.39355V27.6623H12.8686V23.8311Z" stroke="#B20B18" stroke-width="1.25" stroke-linecap="round" stroke-linejoin="round"/>
<path d="M9.4748 27.6562H4.39355V31.4875H9.4748V27.6562Z" stroke="#B20B18" stroke-width="1.25" stroke-linecap="round" stroke-linejoin="round"/>
<path d="M35.6061 27.6562H31.1436V31.4875H35.6061V27.6562Z" stroke="#B20B18" stroke-width="1.25" stroke-linecap="round" stroke-linejoin="round"/>
<path d="M20.0941 23.8311H12.8691V27.6623H20.0941V23.8311Z" stroke="#B20B18" stroke-width="1.25" stroke-linecap="round" stroke-linejoin="round"/>
<path d="M16.6937 27.6562H9.46875V31.4875H16.6937V27.6562Z" stroke="#B20B18" stroke-width="1.25" stroke-linecap="round" stroke-linejoin="round"/>
<path d="M23.9184 27.6562H16.6934V31.4875H23.9184V27.6562Z" stroke="#B20B18" stroke-width="1.25" stroke-linecap="round" stroke-linejoin="round"/>
<path d="M31.1439 27.6562H23.9189V31.4875H31.1439V27.6562Z" stroke="#B20B18" stroke-width="1.25" stroke-linecap="round" stroke-linejoin="round"/>
<path d="M27.3187 23.8311H20.0938V27.6623H27.3187V23.8311Z" stroke="#B20B18" stroke-width="1.25" stroke-linecap="round" stroke-linejoin="round"/>
<path d="M35.6063 23.8252H27.3125V27.6564H35.6063V23.8252Z" stroke="#B20B18" stroke-width="1.25" stroke-linecap="round" stroke-linejoin="round"/>
</svg>
