<svg width="40" height="40" viewBox="0 0 40 40" fill="none" xmlns="http://www.w3.org/2000/svg">
<path d="M17.1621 25.4063C21.822 25.4063 25.5996 21.6287 25.5996 16.9688C25.5996 12.3088 21.822 8.53125 17.1621 8.53125C12.5022 8.53125 8.72461 12.3088 8.72461 16.9688C8.72461 21.6287 12.5022 25.4063 17.1621 25.4063Z" fill="#F4D7D9"/>
<path d="M14.5 33.2379V34.5816H31.875V33.2379C31.875 32.9588 31.7646 32.6911 31.5678 32.4932C31.3711 32.2953 31.104 32.1833 30.825 32.1816H15.5562C15.2761 32.1816 15.0075 32.2929 14.8094 32.491C14.6113 32.6891 14.5 32.9578 14.5 33.2379Z" stroke="#B20B18" stroke-width="1.25" stroke-linecap="round" stroke-linejoin="round"/>
<path d="M11.7559 25.9939L20.6621 15.9189" stroke="#B20B18" stroke-width="1.25" stroke-linecap="round" stroke-linejoin="round"/>
<path d="M22.2373 17.2812L13.2998 27.3875" stroke="#B20B18" stroke-width="1.25" stroke-linecap="round" stroke-linejoin="round"/>
<path d="M4.91218 32.6999L10.6247 26.0874C10.6887 26.0125 10.767 25.9511 10.855 25.9068C10.943 25.8624 11.0389 25.836 11.1371 25.829C11.2354 25.822 11.3341 25.8347 11.4274 25.8661C11.5208 25.8976 11.6069 25.9473 11.6809 26.0124L13.2934 27.4124C13.3683 27.4764 13.4297 27.5547 13.474 27.6427C13.5184 27.7306 13.5448 27.8265 13.5518 27.9248C13.5588 28.0231 13.5461 28.1218 13.5147 28.2151C13.4832 28.3085 13.4335 28.3946 13.3684 28.4686L7.65593 35.0811C7.55429 35.1987 7.43044 35.295 7.29149 35.3647C7.15254 35.4343 7.00122 35.4758 6.8462 35.4868C6.69118 35.4978 6.5355 35.4782 6.3881 35.4289C6.24069 35.3797 6.10445 35.3019 5.98718 35.1999L5.03093 34.3749C4.91245 34.2731 4.81531 34.1489 4.74513 34.0094C4.67496 33.8699 4.63314 33.7179 4.6221 33.5621C4.61105 33.4064 4.63101 33.25 4.6808 33.102C4.73059 32.954 4.80923 32.8173 4.91218 32.6999Z" stroke="#B20B18" stroke-width="1.25" stroke-linecap="round" stroke-linejoin="round"/>
<path d="M23.1191 7.45605L24.1816 8.3498" stroke="#B20B18" stroke-width="1.25" stroke-linecap="round" stroke-linejoin="round"/>
<path d="M19.7809 13.6311L18.5059 12.5498" stroke="#B20B18" stroke-width="1.25" stroke-linecap="round" stroke-linejoin="round"/>
<path d="M26.2375 19.0873L25.125 18.1436" stroke="#B20B18" stroke-width="1.25" stroke-linecap="round" stroke-linejoin="round"/>
<path d="M26.3183 18.9248L30.5058 14.0998C30.6363 13.9487 30.7952 13.8247 30.9736 13.7351C31.1519 13.6454 31.3462 13.5918 31.5453 13.5773C31.7444 13.5627 31.9444 13.5876 32.1339 13.6505C32.3234 13.7133 32.4986 13.8129 32.6496 13.9436C32.9553 14.2081 33.1434 14.5831 33.1727 14.9862C33.202 15.3894 33.07 15.7877 32.8058 16.0936L28.6183 20.9186C28.3521 21.2219 27.9768 21.4078 27.5742 21.4359C27.1716 21.464 26.7741 21.332 26.4683 21.0686C26.3176 20.9377 26.1942 20.7785 26.1051 20.5999C26.016 20.4213 25.9629 20.2269 25.949 20.0278C25.9351 19.8287 25.9605 19.6288 26.0239 19.4396C26.0873 19.2503 26.1873 19.0754 26.3183 18.9248Z" stroke="#B20B18" stroke-width="1.25" stroke-linecap="round" stroke-linejoin="round"/>
<path d="M16.4439 10.3625L20.6251 5.53122C20.8903 5.22832 21.2645 5.04256 21.6661 5.01446C22.0677 4.98636 22.4641 5.1182 22.7689 5.38122C23.0676 5.64298 23.252 6.01138 23.2824 6.40744C23.3127 6.80351 23.1867 7.19571 22.9314 7.49997L18.7501 12.3562C18.4849 12.6591 18.1107 12.8449 17.7091 12.873C17.3075 12.9011 16.9111 12.7692 16.6064 12.5062C16.4548 12.3762 16.3303 12.2176 16.2401 12.0395C16.1498 11.8614 16.0956 11.6672 16.0805 11.468C16.0654 11.2689 16.0897 11.0688 16.1521 10.8791C16.2144 10.6894 16.3136 10.5138 16.4439 10.3625Z" stroke="#B20B18" stroke-width="1.25" stroke-linecap="round" stroke-linejoin="round"/>
<path d="M19.6065 13.8313L24.5128 8.20626C24.5751 8.13319 24.6513 8.07312 24.7369 8.02949C24.8225 7.98585 24.9158 7.95951 25.0116 7.95197C25.1073 7.94442 25.2037 7.95582 25.295 7.98551C25.3864 8.0152 25.471 8.0626 25.544 8.12501L29.569 11.6125C29.7157 11.7393 29.806 11.9192 29.8201 12.1126C29.8341 12.306 29.7708 12.497 29.644 12.6438L24.7315 18.2688C24.6692 18.3421 24.5929 18.4023 24.5071 18.4459C24.4213 18.4894 24.3276 18.5154 24.2316 18.5224C24.1356 18.5294 24.0392 18.5172 23.948 18.4865C23.8568 18.4558 23.7725 18.4073 23.7003 18.3438L19.6815 14.8563C19.5367 14.7296 19.4476 14.551 19.4336 14.3592C19.4196 14.1673 19.4817 13.9776 19.6065 13.8313Z" stroke="#B20B18" stroke-width="1.25" stroke-linecap="round" stroke-linejoin="round"/>
<path d="M29.5371 12.8813L30.7434 13.9001" stroke="#B20B18" stroke-width="1.25" stroke-linecap="round" stroke-linejoin="round"/>
</svg>
