<svg width="40" height="40" viewBox="0 0 40 40" fill="none" xmlns="http://www.w3.org/2000/svg">
<path d="M18.9121 21.375C23.572 21.375 27.3496 17.5974 27.3496 12.9375C27.3496 8.2776 23.572 4.5 18.9121 4.5C14.2522 4.5 10.4746 8.2776 10.4746 12.9375C10.4746 17.5974 14.2522 21.375 18.9121 21.375Z" fill="#F4D7D9"/>
<path fill-rule="evenodd" clip-rule="evenodd" d="M11.3879 29.2873H29.2691C29.5012 29.2873 29.7238 29.3795 29.8879 29.5436C30.052 29.7077 30.1441 29.9302 30.1441 30.1623V31.8748C30.1425 32.1064 30.0498 32.328 29.8861 32.4917C29.7223 32.6555 29.5007 32.7482 29.2691 32.7498H11.3879C11.1316 32.7498 8.40664 31.2373 7.96289 31.0061C8.40664 30.7811 11.1316 29.2686 11.3879 29.2686V29.2873Z" stroke="#B20B18" stroke-width="1.25" stroke-linecap="round" stroke-linejoin="round"/>
<path d="M19.3746 29.2876V32.7688M17.1934 32.7688V29.2876" stroke="#B20B18" stroke-width="1.25" stroke-linecap="round" stroke-linejoin="round"/>
<path d="M30.125 29.9563H31.3313C31.6153 29.9563 31.8878 30.0687 32.0892 30.2689C32.2906 30.4692 32.4046 30.741 32.4062 31.025C32.4062 31.3102 32.293 31.5836 32.0914 31.7852C31.8898 31.9868 31.6164 32.1 31.3313 32.1H30.125" stroke="#B20B18" stroke-width="1.25" stroke-linecap="round" stroke-linejoin="round"/>
<path d="M11.3877 29.2874V32.7686" stroke="#B20B18" stroke-width="1.25" stroke-linecap="round" stroke-linejoin="round"/>
<path d="M35.6184 10.356H4.38086V25.506H35.6184V10.356Z" stroke="#B20B18" stroke-width="1.25" stroke-linecap="round" stroke-linejoin="round"/>
<path d="M32.3438 15.0375V14.4062" stroke="#B20B18" stroke-width="1.25" stroke-linecap="round" stroke-linejoin="round"/>
<path d="M32.3438 20.8876V20.2563" stroke="#B20B18" stroke-width="1.25" stroke-linecap="round" stroke-linejoin="round"/>
<path d="M18.9062 13.7314H20.0875" stroke="#B20B18" stroke-width="1.25" stroke-linecap="round" stroke-linejoin="round"/>
<path d="M22.0312 13.7314H28.8375" stroke="#B20B18" stroke-width="1.25" stroke-linecap="round" stroke-linejoin="round"/>
<path d="M18.9062 16.1064H23.2125" stroke="#B20B18" stroke-width="1.25" stroke-linecap="round" stroke-linejoin="round"/>
<path d="M25.1562 16.1064H28.8375" stroke="#B20B18" stroke-width="1.25" stroke-linecap="round" stroke-linejoin="round"/>
<path d="M7.90625 19.7314H9.0875" stroke="#B20B18" stroke-width="1.25" stroke-linecap="round" stroke-linejoin="round"/>
<path d="M11.0312 19.7314H17.8375" stroke="#B20B18" stroke-width="1.25" stroke-linecap="round" stroke-linejoin="round"/>
<path d="M7.90625 22.1064H12.2125" stroke="#B20B18" stroke-width="1.25" stroke-linecap="round" stroke-linejoin="round"/>
<path d="M14.1562 22.1064H17.8375" stroke="#B20B18" stroke-width="1.25" stroke-linecap="round" stroke-linejoin="round"/>
<path d="M14.1064 13.4189H7.8877V16.4189H14.1064V13.4189Z" stroke="#B20B18" stroke-width="1.25" stroke-linecap="round" stroke-linejoin="round"/>
<path d="M28.9121 19.7188H22.0684V22.0937H28.9121V19.7188Z" stroke="#B20B18" stroke-width="1.25" stroke-linecap="round" stroke-linejoin="round"/>
<path d="M26.6562 19.8564V21.6564" stroke="#B20B18" stroke-width="1.25" stroke-linecap="round" stroke-linejoin="round"/>
<path d="M24.3311 19.8564V21.6564" stroke="#B20B18" stroke-width="1.25" stroke-linecap="round" stroke-linejoin="round"/>
</svg>
