<svg width="40" height="40" viewBox="0 0 40 40" fill="none" xmlns="http://www.w3.org/2000/svg">
<path d="M29.4561 23.5813C34.116 23.5813 37.8936 19.8037 37.8936 15.1438C37.8936 10.4839 34.116 6.7063 29.4561 6.7063C24.7962 6.7063 21.0186 10.4839 21.0186 15.1438C21.0186 19.8037 24.7962 23.5813 29.4561 23.5813Z" fill="#F4D7D9"/>
<path d="M12.0186 29.575L13.8436 26.5437H13.8936V28.6875C13.8946 28.7072 13.9012 28.7263 13.9126 28.7425C13.9239 28.7587 13.9396 28.7714 13.9578 28.7792C13.976 28.787 13.996 28.7896 14.0156 28.7866C14.0351 28.7837 14.0535 28.7753 14.0686 28.7625L15.1436 27.6874V28.9374L16.3936 27.6874C16.3936 27.6874 16.3936 28.9374 18.2686 28.9374H19.3748" stroke="#B20B18" stroke-width="1.25" stroke-linecap="round" stroke-linejoin="round"/>
<path d="M28.1246 33.6064H30.5121C30.6315 33.6064 30.7459 33.559 30.8303 33.4746C30.9147 33.3903 30.9621 33.2758 30.9621 33.1564V11.0252L24.2309 4.3252H9.51836C9.39901 4.3252 9.28455 4.37261 9.20016 4.457C9.11577 4.54139 9.06836 4.65585 9.06836 4.7752V33.1564C9.06836 33.2758 9.11577 33.3903 9.20016 33.4746C9.28455 33.559 9.39901 33.6064 9.51836 33.6064H22.4996" stroke="#B20B18" stroke-width="1.25" stroke-linecap="round" stroke-linejoin="round"/>
<path d="M24.2315 10.5564V4.3064L30.9315 11.0251H24.6815C24.5599 11.0219 24.4445 10.9708 24.3603 10.8831C24.2761 10.7954 24.2298 10.678 24.2315 10.5564Z" stroke="#B20B18" stroke-width="1.25" stroke-linecap="round" stroke-linejoin="round"/>
<path d="M12.0186 10.1562L15.6811 7.2312L19.3373 10.1562" stroke="#B20B18" stroke-width="1.25" stroke-linecap="round" stroke-linejoin="round"/>
<path d="M14.7627 14.0563V11.2375H16.5939V14.0563" stroke="#B20B18" stroke-width="1.25" stroke-linecap="round" stroke-linejoin="round"/>
<path d="M12.9941 9.5V14.0562H18.3629V9.5" stroke="#B20B18" stroke-width="1.25" stroke-linecap="round" stroke-linejoin="round"/>
<path d="M13.7939 8.6125V7.34375" stroke="#B20B18" stroke-width="1.25" stroke-linecap="round" stroke-linejoin="round"/>
<path d="M12.6436 17.2627H23.1998" stroke="#B20B18" stroke-width="1.25" stroke-linecap="round" stroke-linejoin="round"/>
<path d="M25.1436 17.2627H28.1998" stroke="#B20B18" stroke-width="1.25" stroke-linecap="round" stroke-linejoin="round"/>
<path d="M12.6436 20.2812H14.4498" stroke="#B20B18" stroke-width="1.25" stroke-linecap="round" stroke-linejoin="round"/>
<path d="M23.8936 20.2812H28.1998" stroke="#B20B18" stroke-width="1.25" stroke-linecap="round" stroke-linejoin="round"/>
<path d="M23.8936 28.75H28.1998" stroke="#B20B18" stroke-width="1.25" stroke-linecap="round" stroke-linejoin="round"/>
<path d="M21.3936 23.3062H28.1998" stroke="#B20B18" stroke-width="1.25" stroke-linecap="round" stroke-linejoin="round"/>
<path d="M16.3936 20.2812H21.9498" stroke="#B20B18" stroke-width="1.25" stroke-linecap="round" stroke-linejoin="round"/>
<path d="M12.6436 23.3062H16.3248" stroke="#B20B18" stroke-width="1.25" stroke-linecap="round" stroke-linejoin="round"/>
<path d="M18.2686 23.3062H19.4498" stroke="#B20B18" stroke-width="1.25" stroke-linecap="round" stroke-linejoin="round"/>
</svg>
