<svg width="40" height="40" viewBox="0 0 40 40" fill="none" xmlns="http://www.w3.org/2000/svg">
<path d="M15.5 30C21.8513 30 27 24.8513 27 18.5C27 12.1487 21.8513 7 15.5 7C9.14873 7 4 12.1487 4 18.5C4 24.8513 9.14873 30 15.5 30Z" fill="#F4D7D9"/>
<path d="M16.2249 17.3339L25.389 7.2701C25.5384 7.10704 25.7459 7.01019 25.966 7.00076C26.1862 6.99133 26.4011 7.07008 26.5637 7.21978L26.6137 7.2701L35.7777 17.3339C35.8883 17.454 35.9615 17.6039 35.9885 17.7653C36.0154 17.9267 35.9949 18.0925 35.9293 18.2423C35.8638 18.3921 35.7561 18.5193 35.6196 18.6083C35.4832 18.6972 35.3238 18.744 35.1612 18.7429H30.1626V32.1613C30.1626 32.3838 30.0749 32.5971 29.9186 32.7544C29.7624 32.9116 29.5505 33 29.3295 33H22.6648C22.4438 33 22.2319 32.9116 22.0757 32.7544C21.9195 32.5971 21.8317 32.3838 21.8317 32.1613V18.7429H16.8331C16.6121 18.7429 16.4002 18.6545 16.244 18.4973C16.0878 18.34 16 18.1267 16 17.9042C16.0007 17.6924 16.0811 17.4886 16.2249 17.3339Z" stroke="#B20B18" stroke-width="1.25" stroke-linecap="round" stroke-linejoin="round"/>
</svg>
