<svg width="40" height="40" viewBox="0 0 40 40" fill="none" xmlns="http://www.w3.org/2000/svg">
<g clip-path="url(#clip0_710_831)">
<path d="M15.5 30C21.8513 30 27 24.8513 27 18.5C27 12.1487 21.8513 7 15.5 7C9.14873 7 4 12.1487 4 18.5C4 24.8513 9.14873 30 15.5 30Z" fill="#F4D7D9"/>
<path d="M16.2249 17.3339L25.389 7.2701C25.5384 7.10704 25.7459 7.01019 25.966 7.00076C26.1862 6.99133 26.4011 7.07008 26.5637 7.21978L26.6137 7.2701L35.7777 17.3339C35.8883 17.454 35.9615 17.6039 35.9885 17.7653C36.0154 17.9267 35.9949 18.0925 35.9293 18.2423C35.8638 18.3921 35.7561 18.5193 35.6196 18.6083C35.4832 18.6972 35.3238 18.744 35.1612 18.7429H30.1626V32.1613C30.1626 32.3838 30.0749 32.5971 29.9186 32.7544C29.7624 32.9116 29.5505 33 29.3295 33H22.6648C22.4438 33 22.2319 32.9116 22.0757 32.7544C21.9195 32.5971 21.8317 32.3838 21.8317 32.1613V18.7429H16.8331C16.6121 18.7429 16.4002 18.6545 16.244 18.4973C16.0878 18.34 16 18.1267 16 17.9042C16.0007 17.6924 16.0811 17.4886 16.2249 17.3339Z" stroke="#B20B18" stroke-width="1.25" stroke-linecap="round" stroke-linejoin="round"/>
<path d="M9.016 23V21.88H11.018V14.81L9.142 16.224L8.456 15.286L11.354 13.2H12.278V21.88H13.944V23H9.016Z" fill="#B20B18"/>
<path d="M14.124 14.036C13.9427 14.036 13.78 14.004 13.636 13.94C13.492 13.8733 13.3773 13.784 13.292 13.672C13.2093 13.56 13.164 13.436 13.156 13.3H13.72C13.7307 13.3853 13.772 13.456 13.844 13.512C13.9187 13.568 14.0107 13.596 14.12 13.596C14.2267 13.596 14.3093 13.5747 14.368 13.532C14.4293 13.4893 14.46 13.4347 14.46 13.368C14.46 13.296 14.4227 13.2427 14.348 13.208C14.276 13.1707 14.16 13.1307 14 13.088C13.8347 13.048 13.6987 13.0067 13.592 12.964C13.488 12.9213 13.3973 12.856 13.32 12.768C13.2453 12.68 13.208 12.5613 13.208 12.412C13.208 12.2893 13.2427 12.1773 13.312 12.076C13.384 11.9747 13.4853 11.8947 13.616 11.836C13.7493 11.7773 13.9053 11.748 14.084 11.748C14.348 11.748 14.5587 11.8147 14.716 11.948C14.8733 12.0787 14.96 12.256 14.976 12.48H14.44C14.432 12.392 14.3947 12.3227 14.328 12.272C14.264 12.2187 14.1773 12.192 14.068 12.192C13.9667 12.192 13.888 12.2107 13.832 12.248C13.7787 12.2853 13.752 12.3373 13.752 12.404C13.752 12.4787 13.7893 12.536 13.864 12.576C13.9387 12.6133 14.0547 12.652 14.212 12.692C14.372 12.732 14.504 12.7733 14.608 12.816C14.712 12.8587 14.8013 12.9253 14.876 13.016C14.9533 13.104 14.9933 13.2213 14.996 13.368C14.996 13.496 14.96 13.6107 14.888 13.712C14.8187 13.8133 14.7173 13.8933 14.584 13.952C14.4533 14.008 14.3 14.036 14.124 14.036ZM16.4077 12.244V13.316C16.4077 13.3907 16.425 13.4453 16.4597 13.48C16.497 13.512 16.5584 13.528 16.6437 13.528H16.9037V14H16.5517C16.0797 14 15.8437 13.7707 15.8437 13.312V12.244H15.5797V11.784H15.8437V11.236H16.4077V11.784H16.9037V12.244H16.4077Z" fill="#B20B18"/>
</g>
<defs>
<clipPath id="clip0_710_831">
<rect width="40" height="40" fill="white"/>
</clipPath>
</defs>
</svg>
