<svg width="40" height="40" viewBox="0 0 40 40" fill="none" xmlns="http://www.w3.org/2000/svg">
<path d="M15 35.3125C19.6599 35.3125 23.4375 31.5349 23.4375 26.875C23.4375 22.2151 19.6599 18.4375 15 18.4375C10.3401 18.4375 6.5625 22.2151 6.5625 26.875C6.5625 31.5349 10.3401 35.3125 15 35.3125Z" fill="#F4D7D9"/>
<path d="M9.9502 13.3689L16.4377 10.5877C16.9692 10.3592 17.5573 10.2961 18.1252 10.4064L21.1439 10.9314C21.727 11.0324 22.2836 11.2507 22.7799 11.573C23.2762 11.8952 23.702 12.3149 24.0314 12.8064C24.0314 12.8064 20.9064 12.2814 18.8252 12.8064C16.9077 13.4066 15.0291 14.1246 13.2002 14.9564C13.1063 14.9954 13.021 15.0525 12.9493 15.1247C12.8776 15.1968 12.8209 15.2824 12.7826 15.3766C12.7442 15.4707 12.7249 15.5716 12.7258 15.6733C12.7267 15.775 12.7477 15.8754 12.7877 15.9689C12.8447 16.1041 12.9404 16.2193 13.0627 16.3002C14.1814 17.0377 16.3377 17.7689 19.9002 16.4689L29.2752 22.7189C29.4848 22.8552 29.665 23.032 29.8053 23.239C29.9455 23.4459 30.043 23.6788 30.0919 23.924C30.1408 24.1692 30.1402 24.4216 30.0901 24.6666C30.04 24.9115 29.9414 25.1439 29.8002 25.3502C29.5262 25.764 29.0993 26.0523 28.6131 26.1518C28.1269 26.2514 27.6211 26.1542 27.2064 25.8814L22.9939 23.2502L25.5877 24.8627C25.96 25.0969 26.2244 25.4692 26.3228 25.898C26.4212 26.3267 26.3456 26.777 26.1127 27.1502C26.0788 27.2068 26.0412 27.2611 26.0002 27.3127C25.746 27.6322 25.3827 27.8466 24.9802 27.9146C24.5776 27.9827 24.164 27.8996 23.8189 27.6814L20.9064 25.8814L23.2439 27.3064C23.4058 27.4007 23.5474 27.526 23.6606 27.6753C23.7737 27.8245 23.8562 27.9947 23.9033 28.176C23.9503 28.3573 23.961 28.5461 23.9348 28.7315C23.9085 28.917 23.8458 29.0954 23.7502 29.2564C23.694 29.355 23.6246 29.4454 23.5439 29.5252C23.3162 29.7504 23.0201 29.8935 22.7022 29.9319C22.3842 29.9704 22.0625 29.9021 21.7877 29.7377L18.8502 27.9752L19.9002 28.6002C20.1737 28.772 20.37 29.0431 20.4481 29.3565C20.5262 29.6699 20.4799 30.0014 20.3189 30.2814C20.2363 30.4159 20.128 30.5327 20.0002 30.6252C19.8123 30.7645 19.5892 30.8483 19.356 30.8671C19.1229 30.8859 18.8892 30.8389 18.6814 30.7314C16.5002 29.5439 9.98769 25.8627 9.98769 23.2689L9.9502 13.3689Z" stroke="#B20B18" stroke-width="1.25" stroke-linecap="round" stroke-linejoin="round"/>
<path d="M24.0127 12.8496L30.0564 13.8934V24.3559" stroke="#B20B18" stroke-width="1.25" stroke-linecap="round" stroke-linejoin="round"/>
<path d="M5.79395 13.3687H9.94394V23.4937H5.79395" stroke="#B20B18" stroke-width="1.25" stroke-linecap="round" stroke-linejoin="round"/>
<path d="M34.2062 23.4937H30.0562V13.3687H34.2062" stroke="#B20B18" stroke-width="1.25" stroke-linecap="round" stroke-linejoin="round"/>
</svg>
