<svg width="40" height="40" viewBox="0 0 40 40" fill="none" xmlns="http://www.w3.org/2000/svg">
<g clip-path="url(#clip0_497_380)">
<path d="M28.5879 21.2876C33.7483 21.2876 37.9316 17.1043 37.9316 11.9438C37.9316 6.78344 33.7483 2.6001 28.5879 2.6001C23.4275 2.6001 19.2441 6.78344 19.2441 11.9438C19.2441 17.1043 23.4275 21.2876 28.5879 21.2876Z" fill="#F4D7D9"/>
<path d="M27.0936 35.2125C27.0433 34.9974 27.0181 34.7772 27.0186 34.5563C27.0208 33.9038 27.2348 33.2696 27.6284 32.7492C28.022 32.2288 28.574 31.8502 29.2013 31.6705C29.8286 31.4908 30.4973 31.5196 31.1068 31.7526C31.7163 31.9856 32.2336 32.4102 32.5811 32.9625C33.1394 33.022 33.6566 33.2836 34.0354 33.698C34.4142 34.1125 34.6283 34.6511 34.6373 35.2125" stroke="#B20B18" stroke-width="1.25" stroke-linecap="round" stroke-linejoin="round"/>
<path d="M4.8623 35.2124C4.87421 34.6509 5.09008 34.1129 5.46962 33.6988C5.84915 33.2848 6.36641 33.023 6.9248 32.9624C7.26696 32.3995 7.78453 31.9646 8.39795 31.7245C9.01137 31.4843 9.68667 31.4524 10.32 31.6334C10.9534 31.8145 11.5098 32.1986 11.9036 32.7266C12.2974 33.2547 12.5069 33.8975 12.4998 34.5562C12.4993 34.7767 12.4762 34.9966 12.4311 35.2124" stroke="#B20B18" stroke-width="1.25" stroke-linecap="round" stroke-linejoin="round"/>
<path d="M12.6375 7.23114H31.2562L33.1312 12.6874H5.46875L7.34375 7.23114H10.0063" stroke="#B20B18" stroke-width="1.25" stroke-linecap="round" stroke-linejoin="round"/>
<path d="M7.125 19.75V13.2812" stroke="#B20B18" stroke-width="1.25" stroke-linecap="round" stroke-linejoin="round"/>
<path d="M31.4746 13.2812V19.75" stroke="#B20B18" stroke-width="1.25" stroke-linecap="round" stroke-linejoin="round"/>
<path d="M7.125 32.4875V22.6562" stroke="#B20B18" stroke-width="1.25" stroke-linecap="round" stroke-linejoin="round"/>
<path d="M31.4746 22.6562V31.8" stroke="#B20B18" stroke-width="1.25" stroke-linecap="round" stroke-linejoin="round"/>
<path d="M32.9248 20.1001H5.6748V22.1626H32.9248V20.1001Z" stroke="#B20B18" stroke-width="1.25" stroke-linecap="round" stroke-linejoin="round"/>
<path d="M13.8686 14.75H9.7373V17.9875H13.8686V14.75Z" stroke="#B20B18" stroke-width="1.25" stroke-linecap="round" stroke-linejoin="round"/>
<path d="M21.3061 14.7501H17.1748V17.9876H21.3061V14.7501Z" stroke="#B20B18" stroke-width="1.25" stroke-linecap="round" stroke-linejoin="round"/>
<path d="M28.8686 14.75H24.7373V17.9875H28.8686V14.75Z" stroke="#B20B18" stroke-width="1.25" stroke-linecap="round" stroke-linejoin="round"/>
<path d="M19.375 27.5999C18.7085 27.6098 18.0727 27.8815 17.6049 28.3563C17.1371 28.8311 16.8749 29.4709 16.875 30.1374V35.6249H21.9375V30.1374C21.9375 29.8021 21.8711 29.4701 21.742 29.1605C21.6129 28.851 21.4238 28.5702 21.1855 28.3342C20.9472 28.0983 20.6645 27.9119 20.3537 27.7858C20.043 27.6598 19.7103 27.5966 19.375 27.5999Z" stroke="#B20B18" stroke-width="1.25" stroke-linecap="round" stroke-linejoin="round"/>
<path d="M19.2373 14.7501V17.9938" stroke="#B20B18" stroke-width="1.25" stroke-linecap="round" stroke-linejoin="round"/>
<path d="M13.8686 24.75H9.7373V29.2375H13.8686V24.75Z" stroke="#B20B18" stroke-width="1.25" stroke-linecap="round" stroke-linejoin="round"/>
<path d="M28.8686 24.75H24.7373V29.2375H28.8686V24.75Z" stroke="#B20B18" stroke-width="1.25" stroke-linecap="round" stroke-linejoin="round"/>
<path d="M12.6 5.97504V8.51254H10.0625V5.97504" stroke="#B20B18" stroke-width="1.25" stroke-linecap="round" stroke-linejoin="round"/>
<path d="M12.9066 5.73135H9.78164C9.73025 5.73135 9.68097 5.71093 9.64464 5.6746C9.6083 5.63826 9.58789 5.58898 9.58789 5.5376V4.60635C9.58789 4.5001 9.66914 3.7876 9.78164 3.7876H12.9066C13.0129 3.7876 13.1004 4.5001 13.1004 4.60635V5.5376C13.1004 5.58898 13.08 5.63826 13.0436 5.6746C13.0073 5.71093 12.958 5.73135 12.9066 5.73135Z" stroke="#B20B18" stroke-width="1.25" stroke-linecap="round" stroke-linejoin="round"/>
<path d="M3.33789 35.8813H35.5941" stroke="#B20B18" stroke-width="1.25" stroke-linecap="round" stroke-linejoin="round"/>
</g>
<defs>
<clipPath id="clip0_497_380">
<rect width="40" height="40" fill="white"/>
</clipPath>
</defs>
</svg>
