<svg width="33" height="28" viewBox="0 0 33 28" fill="none" xmlns="http://www.w3.org/2000/svg">
<path d="M24.8998 20.1635C29.3733 20.1635 32.9998 16.562 32.9998 12.1193C32.9998 7.67668 29.3733 4.0752 24.8998 4.0752C20.4263 4.0752 16.7998 7.67668 16.7998 12.1193C16.7998 16.562 20.4263 20.1635 24.8998 20.1635Z" fill="#F4D7D9"/>
<path d="M20.3438 0.5H8.53125V10.5552H9.7125L10.05 11.7283L10.2188 11.8959V2.17586H18.6562V8.87931H25.4062V23.9621H15.2812L15.7875 24.8L14.9438 25.6379H27.0938V7.20345L20.3438 0.5ZM20.3438 7.20345V2.17586L25.4062 7.20345H20.3438ZM9.375 19.7724C9.375 20.2169 9.19721 20.6431 8.88074 20.9574C8.56427 21.2717 8.13505 21.4483 7.6875 21.4483C7.23995 21.4483 6.81072 21.2717 6.49426 20.9574C6.17779 20.6431 6 20.2169 6 19.7724C6 19.3279 6.17779 18.9017 6.49426 18.5874C6.81072 18.2731 7.23995 18.0966 7.6875 18.0966C8.13505 18.0966 8.56427 18.2731 8.88074 18.5874C9.19721 18.9017 9.375 19.3279 9.375 19.7724Z" fill="#B20B18"/>
<path d="M13.3313 21.4671L15.1875 20.7968V19.1209L13.3313 18.4506C13.1625 17.9478 12.9937 17.4451 12.6562 16.9423L13.5 15.2664L12.3188 14.0933L10.6313 14.9313C10.125 14.5961 9.61875 14.4285 9.1125 14.2609L8.4375 12.4175H6.75L6.075 14.2609C5.56875 14.4285 5.0625 14.5961 4.55625 14.9313L2.86875 14.0933L1.6875 15.2664L2.53125 17.1099C2.19375 17.6127 2.025 18.1154 1.85625 18.6182L0 19.1209V20.7968L1.85625 21.4671C2.025 21.9699 2.19375 22.4727 2.53125 22.9754L1.6875 24.6513L2.86875 25.8244L4.725 24.9864C5.23125 25.3216 5.7375 25.4892 6.24375 25.6568L6.75 27.5002H8.4375L9.1125 25.6568C9.61875 25.4892 10.125 25.3216 10.6313 24.9864L12.3188 25.8244L13.5 24.6513L12.6562 22.8078C12.9937 22.4727 13.1625 21.9699 13.3313 21.4671ZM7.59375 23.3106C5.7375 23.3106 4.21875 21.8023 4.21875 19.9589C4.21875 18.1154 5.7375 16.6071 7.59375 16.6071C9.45 16.6071 10.9688 18.1154 10.9688 19.9589C10.9688 21.8023 9.45 23.3106 7.59375 23.3106Z" fill="#B20B18"/>
</svg>
