<svg width="27" height="43" viewBox="0 0 27 43" fill="none" xmlns="http://www.w3.org/2000/svg">
<path d="M12.2217 36.2528C18.9716 36.2528 24.4435 30.7809 24.4435 24.0311C24.4435 17.2812 18.9716 11.8093 12.2217 11.8093C5.47186 11.8093 0 17.2812 0 24.0311C0 30.7809 5.47186 36.2528 12.2217 36.2528Z" fill="#F4D7D9"/>
<path d="M13.6702 24.0581L12.2217 18.6353" stroke="#B20B18" stroke-width="1.81063" stroke-linecap="round" stroke-linejoin="round"/>
<path d="M15.8345 17.5675L17.1291 22.3838L17.5274 23.7689L17.7085 24.4479" stroke="#B20B18" stroke-width="1.81063" stroke-linecap="round" stroke-linejoin="round"/>
<path d="M19.8268 32.5413L20.7321 35.737C20.8227 35.9824 20.8611 36.2439 20.845 36.5049C20.8289 36.7659 20.7586 37.0208 20.6386 37.2531C20.5186 37.4855 20.3514 37.6903 20.1479 37.8545C19.9444 38.0187 19.7088 38.1387 19.4564 38.2069C19.2039 38.2751 18.94 38.2899 18.6814 38.2504C18.4229 38.211 18.1754 38.1181 17.9548 37.9777C17.7341 37.8374 17.5451 37.6526 17.3998 37.4351C17.2545 37.2177 17.1561 36.9723 17.1109 36.7148L16.8755 35.8094" stroke="#B20B18" stroke-width="1.81063" stroke-linecap="round" stroke-linejoin="round"/>
<path d="M19.7553 29.8885L19.5742 27.1183L17.6187 23.995C17.3301 23.5364 17.1606 23.0129 17.1258 22.4722C17.0911 21.9314 17.192 21.3906 17.4196 20.8988L17.6097 20.4914C17.6584 20.3839 17.733 20.2901 17.8267 20.2184C17.9205 20.1466 18.0306 20.0993 18.1471 20.0804C18.2636 20.0616 18.383 20.0719 18.4946 20.1105C18.6062 20.149 18.7065 20.2145 18.7866 20.3013L24.8794 26.9101L25.7847 35.1303" stroke="#B20B18" stroke-width="1.81063" stroke-linecap="round" stroke-linejoin="round"/>
<path d="M19.6009 27.3895C19.3441 27.5203 19.053 27.5678 18.768 27.5253H18.7046H18.4873L14.4406 27.0093L13.7888 26.9278L13.5624 26.8735C13.3632 26.8135 13.1791 26.7113 13.0229 26.5739C12.8667 26.4364 12.7419 26.2669 12.6571 26.0768C12.5556 25.8402 12.5212 25.5803 12.5575 25.3254C12.5949 25.0343 12.721 24.7618 12.9186 24.5448C13.1161 24.3278 13.3757 24.1768 13.662 24.1123C13.8234 24.0806 13.9895 24.0806 14.1509 24.1123L17.6726 24.565H17.926" stroke="#B20B18" stroke-width="1.81063" stroke-linecap="round" stroke-linejoin="round"/>
<path d="M18.1071 30.2962C18.8905 30.3981 19.6082 29.8456 19.7101 29.0622C19.8119 28.2789 19.2595 27.5612 18.4761 27.4593L13.5025 26.8125C12.7191 26.7106 12.0015 27.2631 11.8996 28.0465C11.7977 28.8298 12.3502 29.5475 13.1336 29.6494L18.1071 30.2962Z" stroke="#B20B18" stroke-width="1.81063" stroke-linecap="round" stroke-linejoin="round"/>
<path d="M18.424 33.222C19.2074 33.3239 19.9251 32.7714 20.0269 31.988C20.1288 31.2046 19.5764 30.487 18.793 30.3851L13.8194 29.7383C13.036 29.6364 12.3184 30.1889 12.2165 30.9722C12.1146 31.7556 12.6671 32.4733 13.4505 32.5752L18.424 33.222Z" stroke="#B20B18" stroke-width="1.81063" stroke-linecap="round" stroke-linejoin="round"/>
<path d="M17.6093 34.7504C17.6347 34.5642 17.6229 34.3748 17.5747 34.1932C17.5264 34.0116 17.4426 33.8413 17.3281 33.6923C17.2136 33.5433 17.0707 33.4184 16.9076 33.325C16.7445 33.2316 16.5646 33.1714 16.3781 33.148L13.7889 32.7225C13.6027 32.6971 13.4133 32.7089 13.2317 32.7572C13.05 32.8054 12.8798 32.8892 12.7308 33.0038C12.5817 33.1183 12.4569 33.2612 12.3635 33.4242C12.2701 33.5873 12.2099 33.7673 12.1865 33.9537C12.1428 34.3266 12.2474 34.7016 12.4777 34.998C12.7081 35.2944 13.0457 35.4883 13.4177 35.538L16.016 35.9635C16.3879 36.0125 16.7641 35.9125 17.0626 35.6852C17.361 35.458 17.5576 35.122 17.6093 34.7504Z" stroke="#B20B18" stroke-width="1.81063" stroke-linecap="round" stroke-linejoin="round"/>
<path d="M13.417 35.5378C13.417 35.5378 14.3223 39.2315 16.5313 40.1278C18.7402 41.024 19.7542 41.5129 20.0077 41.875" stroke="#B20B18" stroke-width="1.81063" stroke-linecap="round" stroke-linejoin="round"/>
<path d="M11.6066 18.6536C16.4815 18.6536 20.4334 14.7017 20.4334 9.82681C20.4334 4.9519 16.4815 1 11.6066 1C6.73168 1 2.77979 4.9519 2.77979 9.82681C2.77979 14.7017 6.73168 18.6536 11.6066 18.6536Z" stroke="#B20B18" stroke-width="1.81063" stroke-linecap="round" stroke-linejoin="round"/>
</svg>
