<svg width="41" height="38" viewBox="0 0 41 38" fill="none" xmlns="http://www.w3.org/2000/svg">
<path d="M30 24C36.0751 24 41 18.8513 41 12.5C41 6.14873 36.0751 1 30 1C23.9249 1 19 6.14873 19 12.5C19 18.8513 23.9249 24 30 24Z" fill="#FFEEF0"/>
<path d="M36.6546 26.8486H1V29.3603H36.6546V26.8486Z" stroke="#CC6D6D" stroke-linecap="round" stroke-linejoin="round"/>
<path d="M36.6546 26.8486H1V29.3603H36.6546V26.8486Z" stroke="black" stroke-opacity="0.2" stroke-linecap="round" stroke-linejoin="round"/>
<path d="M36.6546 14.4578H1V16.9694H36.6546V14.4578Z" stroke="#CC6D6D" stroke-linecap="round" stroke-linejoin="round"/>
<path d="M36.6546 14.4578H1V16.9694H36.6546V14.4578Z" stroke="black" stroke-opacity="0.2" stroke-linecap="round" stroke-linejoin="round"/>
<path d="M5.29175 37V10.4461C5.29175 9.20559 5.34725 7.97726 5.45509 6.83121C5.56293 5.68516 5.721 4.64384 5.92026 3.76669C6.11953 2.88954 6.35608 2.19375 6.61643 1.71904C6.87678 1.24433 7.15583 1 7.43763 1C7.71943 1 7.99847 1.24433 8.25882 1.71904C8.51917 2.19375 8.75573 2.88954 8.95499 3.76669C9.15426 4.64384 9.31232 5.68516 9.42016 6.83121C9.528 7.97726 9.5835 9.20559 9.5835 10.4461V37" stroke="#CC6D6D" stroke-linecap="round" stroke-linejoin="round"/>
<path d="M5.29175 37V10.4461C5.29175 9.20559 5.34725 7.97726 5.45509 6.83121C5.56293 5.68516 5.721 4.64384 5.92026 3.76669C6.11953 2.88954 6.35608 2.19375 6.61643 1.71904C6.87678 1.24433 7.15583 1 7.43763 1C7.71943 1 7.99847 1.24433 8.25882 1.71904C8.51917 2.19375 8.75573 2.88954 8.95499 3.76669C9.15426 4.64384 9.31232 5.68516 9.42016 6.83121C9.528 7.97726 9.5835 9.20559 9.5835 10.4461V37" stroke="black" stroke-opacity="0.2" stroke-linecap="round" stroke-linejoin="round"/>
<path d="M28.0713 37V10.4461C28.0713 9.20559 28.1268 7.97726 28.2346 6.83121C28.3425 5.68516 28.5005 4.64384 28.6998 3.76669C28.8991 2.88954 29.1356 2.19375 29.396 1.71904C29.6563 1.24433 29.9354 1 30.2172 1C30.499 1 30.778 1.24433 31.0384 1.71904C31.2987 2.19375 31.5353 2.88954 31.7345 3.76669C31.9338 4.64384 32.0919 5.68516 32.1997 6.83121C32.3075 7.97726 32.363 9.20559 32.363 10.4461V37" stroke="#CC6D6D" stroke-linecap="round" stroke-linejoin="round"/>
<path d="M28.0713 37V10.4461C28.0713 9.20559 28.1268 7.97726 28.2346 6.83121C28.3425 5.68516 28.5005 4.64384 28.6998 3.76669C28.8991 2.88954 29.1356 2.19375 29.396 1.71904C29.6563 1.24433 29.9354 1 30.2172 1C30.499 1 30.778 1.24433 31.0384 1.71904C31.2987 2.19375 31.5353 2.88954 31.7345 3.76669C31.9338 4.64384 32.0919 5.68516 32.1997 6.83121C32.3075 7.97726 32.363 9.20559 32.363 10.4461V37" stroke="black" stroke-opacity="0.2" stroke-linecap="round" stroke-linejoin="round"/>
<path d="M20.4783 37V10.4461C20.4783 9.20559 20.5338 7.97726 20.6416 6.83121C20.7495 5.68516 20.9075 4.64384 21.1068 3.76669C21.306 2.88954 21.5426 2.19375 21.803 1.71904C22.0633 1.24433 22.3423 1 22.6242 1C22.906 1 23.185 1.24433 23.4453 1.71904C23.7057 2.19375 23.9423 2.88954 24.1415 3.76669C24.3408 4.64384 24.4988 5.68516 24.6067 6.83121C24.7145 7.97726 24.77 9.20559 24.77 10.4461V37" stroke="#CC6D6D" stroke-linecap="round" stroke-linejoin="round"/>
<path d="M20.4783 37V10.4461C20.4783 9.20559 20.5338 7.97726 20.6416 6.83121C20.7495 5.68516 20.9075 4.64384 21.1068 3.76669C21.306 2.88954 21.5426 2.19375 21.803 1.71904C22.0633 1.24433 22.3423 1 22.6242 1C22.906 1 23.185 1.24433 23.4453 1.71904C23.7057 2.19375 23.9423 2.88954 24.1415 3.76669C24.3408 4.64384 24.4988 5.68516 24.6067 6.83121C24.7145 7.97726 24.77 9.20559 24.77 10.4461V37" stroke="black" stroke-opacity="0.2" stroke-linecap="round" stroke-linejoin="round"/>
<path d="M12.885 37V10.4461C12.885 9.20559 12.9405 7.97726 13.0484 6.83121C13.1562 5.68516 13.3143 4.64384 13.5135 3.76669C13.7128 2.88954 13.9493 2.19375 14.2097 1.71904C14.47 1.24433 14.7491 1 15.0309 1C15.3127 1 15.5917 1.24433 15.8521 1.71904C16.1124 2.19375 16.349 2.88954 16.5483 3.76669C16.7475 4.64384 16.9056 5.68516 17.0134 6.83121C17.1213 7.97726 17.1768 9.20559 17.1768 10.4461V37" stroke="#CC6D6D" stroke-linecap="round" stroke-linejoin="round"/>
<path d="M12.885 37V10.4461C12.885 9.20559 12.9405 7.97726 13.0484 6.83121C13.1562 5.68516 13.3143 4.64384 13.5135 3.76669C13.7128 2.88954 13.9493 2.19375 14.2097 1.71904C14.47 1.24433 14.7491 1 15.0309 1C15.3127 1 15.5917 1.24433 15.8521 1.71904C16.1124 2.19375 16.349 2.88954 16.5483 3.76669C16.7475 4.64384 16.9056 5.68516 17.0134 6.83121C17.1213 7.97726 17.1768 9.20559 17.1768 10.4461V37" stroke="black" stroke-opacity="0.2" stroke-linecap="round" stroke-linejoin="round"/>
</svg>
