<svg width="227" height="28" viewBox="0 0 227 28" fill="none" xmlns="http://www.w3.org/2000/svg">
<g filter="url(#filter0_dd_174_187)">
<rect x="2" y="3" width="200" height="22" rx="4" fill="white"/>
<rect x="1.75" y="2.75" width="200.5" height="22.5" rx="4.25" stroke="black" stroke-opacity="0.05" stroke-width="0.5"/>
</g>
<path d="M16.721 16.608C16.721 13.228 11.729 14.84 11.729 12.214C11.729 11.161 12.613 10.576 13.679 10.589C14.94 10.602 15.551 11.382 15.655 12.019H16.643C16.487 10.771 15.447 9.809 13.718 9.809C11.963 9.809 10.806 10.836 10.806 12.24C10.806 15.659 15.798 13.969 15.798 16.647C15.798 17.583 15.057 18.324 13.796 18.324C12.327 18.324 11.768 17.414 11.69 16.66H10.728C10.78 18.051 11.976 19.091 13.796 19.091C15.72 19.091 16.721 17.843 16.721 16.608ZM21.5885 12.578C22.9015 12.578 24.0975 13.41 24.0585 15.061H19.0665C19.1705 13.41 20.3015 12.578 21.5885 12.578ZM24.8775 16.751H23.9155C23.6555 17.7 22.8365 18.337 21.6275 18.337C20.3015 18.337 19.1445 17.466 19.0665 15.802H24.9555C24.9815 15.555 24.9815 15.373 24.9815 15.087C24.9815 13.28 23.7075 11.798 21.6275 11.798C19.5865 11.798 18.1435 13.189 18.1435 15.451C18.1435 17.7 19.6125 19.104 21.6275 19.104C23.4085 19.104 24.5525 18.09 24.8775 16.751ZM26.7264 19H27.6364V9.38H26.7264V19ZM32.8061 12.578C34.1191 12.578 35.3151 13.41 35.2761 15.061H30.2841C30.3881 13.41 31.5191 12.578 32.8061 12.578ZM36.0951 16.751H35.1331C34.8731 17.7 34.0541 18.337 32.8451 18.337C31.5191 18.337 30.3621 17.466 30.2841 15.802H36.1731C36.1991 15.555 36.1991 15.373 36.1991 15.087C36.1991 13.28 34.9251 11.798 32.8451 11.798C30.8041 11.798 29.3611 13.189 29.3611 15.451C29.3611 17.7 30.8301 19.104 32.8451 19.104C34.6261 19.104 35.7701 18.09 36.0951 16.751ZM37.528 15.451C37.528 17.7 38.971 19.104 40.973 19.104C42.754 19.104 43.911 18.103 44.236 16.686H43.261C43.014 17.726 42.169 18.337 40.973 18.337C39.582 18.337 38.451 17.375 38.451 15.451C38.451 13.527 39.582 12.578 40.973 12.578C42.169 12.578 43.027 13.202 43.261 14.216H44.236C43.911 12.747 42.754 11.798 40.973 11.798C38.971 11.798 37.528 13.202 37.528 15.451ZM46.2566 17.076C46.2566 18.493 46.9196 19 48.1546 19H49.1296V18.22H48.2976C47.4786 18.22 47.1796 17.947 47.1796 17.076V12.669H49.1296V11.902H47.1796V10.121H46.2566V11.902H45.2686V12.669H46.2566V17.076Z" fill="#27292A"/>
<path d="M193 16L190.053 18.947C190.024 18.9763 189.976 18.9763 189.947 18.947L187 16" stroke="#27292A" stroke-width="1.5" stroke-linecap="round"/>
<path d="M193 12L190.053 9.05303C190.024 9.02374 189.976 9.02374 189.947 9.05303L187 12" stroke="#27292A" stroke-width="1.5" stroke-linecap="round"/>
<defs>
<filter id="filter0_dd_174_187" x="0.5" y="2" width="203" height="25.5" filterUnits="userSpaceOnUse" color-interpolation-filters="sRGB">
<feFlood flood-opacity="0" result="BackgroundImageFix"/>
<feColorMatrix in="SourceAlpha" type="matrix" values="0 0 0 0 0 0 0 0 0 0 0 0 0 0 0 0 0 0 127 0" result="hardAlpha"/>
<feOffset dy="1"/>
<feGaussianBlur stdDeviation="0.5"/>
<feColorMatrix type="matrix" values="0 0 0 0 0 0 0 0 0 0 0 0 0 0 0 0 0 0 0.05 0"/>
<feBlend mode="normal" in2="BackgroundImageFix" result="effect1_dropShadow_174_187"/>
<feColorMatrix in="SourceAlpha" type="matrix" values="0 0 0 0 0 0 0 0 0 0 0 0 0 0 0 0 0 0 127 0" result="hardAlpha"/>
<feOffset dy="0.5"/>
<feGaussianBlur stdDeviation="0.5"/>
<feColorMatrix type="matrix" values="0 0 0 0 0 0 0 0 0 0 0 0 0 0 0 0 0 0 0.1 0"/>
<feBlend mode="normal" in2="effect1_dropShadow_174_187" result="effect2_dropShadow_174_187"/>
<feBlend mode="normal" in="SourceGraphic" in2="effect2_dropShadow_174_187" result="shape"/>
</filter>
</defs>
</svg>
