<svg width="40" height="40" viewBox="0 0 40 40" fill="none" xmlns="http://www.w3.org/2000/svg">
<g clip-path="url(#clip0_671_1140)">
<path d="M12.2129 27.0752C16.8728 27.0752 20.6504 23.2976 20.6504 18.6377C20.6504 13.9778 16.8728 10.2002 12.2129 10.2002C7.55299 10.2002 3.77539 13.9778 3.77539 18.6377C3.77539 23.2976 7.55299 27.0752 12.2129 27.0752Z" fill="#F4D7D9"/>
<path d="M26.3625 13.6188C26.3625 13.6188 23.675 13.2438 22.1187 11.375C18.75 14.8688 13.6875 14.8062 13.6875 14.8062V18.65C13.6875 20.3308 14.3552 21.9428 15.5437 23.1313C16.7322 24.3198 18.3442 24.9875 20.025 24.9875C21.7058 24.9875 23.3178 24.3198 24.5063 23.1313C25.6948 21.9428 26.3625 20.3308 26.3625 18.65V13.65" stroke="#B20B18" stroke-width="1.25" stroke-linecap="round" stroke-linejoin="round"/>
<path d="M13.6875 14.806H12.4375V13.4622C12.4375 12.4002 12.647 11.3487 13.054 10.3677C13.4609 9.38679 14.0574 8.49578 14.8092 7.7457C15.5611 6.99562 16.4535 6.40121 17.4353 5.99651C18.4172 5.59181 19.4692 5.38476 20.5312 5.38723C20.746 5.38641 20.9588 5.42799 21.1574 5.5096C21.3561 5.59121 21.5366 5.71124 21.6888 5.8628C21.8409 6.01435 21.9616 6.19446 22.044 6.39278C22.1264 6.5911 22.1688 6.80373 22.1688 7.01848V7.23723C22.9007 7.28575 23.6278 7.39022 24.3438 7.54973C25.2566 7.75148 26.0735 8.25826 26.6598 8.98653C27.246 9.71479 27.5666 10.6211 27.5688 11.556" stroke="#B20B18" stroke-width="1.25" stroke-linecap="round" stroke-linejoin="round"/>
<path d="M17.7246 20.5811C18.3382 21.1841 19.1642 21.5221 20.0246 21.5221C20.885 21.5221 21.711 21.1841 22.3246 20.5811" stroke="#B20B18" stroke-width="1.25" stroke-linecap="round" stroke-linejoin="round"/>
<path d="M13.6371 18.3874C13.1805 18.3604 12.7515 18.16 12.4377 17.8272C12.124 17.4943 11.9492 17.0542 11.9492 16.5968C11.9492 16.1394 12.124 15.6992 12.4377 15.3664C12.7515 15.0335 13.1805 14.8331 13.6371 14.8062" stroke="#B20B18" stroke-width="1.25" stroke-linecap="round" stroke-linejoin="round"/>
<path d="M26.3623 18.3876C26.6064 18.402 26.8508 18.3664 27.0806 18.2829C27.3103 18.1995 27.5206 18.0699 27.6985 17.9022C27.8764 17.7345 28.0182 17.5323 28.115 17.3078C28.2119 17.0833 28.2619 16.8414 28.2619 16.597C28.2619 16.3525 28.2119 16.1106 28.115 15.8862C28.0182 15.6617 27.8764 15.4594 27.6985 15.2917C27.5206 15.124 27.3103 14.9945 27.0806 14.911C26.8508 14.8275 26.6064 14.7919 26.3623 14.8063" stroke="#B20B18" stroke-width="1.25" stroke-linecap="round" stroke-linejoin="round"/>
<path d="M17.0312 27.25C17.8585 27.9551 18.9131 28.337 20 28.325C21.1327 28.318 22.2417 28.0002 23.2063 27.4062" stroke="#B20B18" stroke-width="1.25" stroke-linecap="round" stroke-linejoin="round"/>
<path d="M7.08789 34.619C7.08941 33.9914 7.24387 33.3736 7.53789 32.819C8.63789 30.6753 11.5441 29.2003 13.9504 28.3003" stroke="#B20B18" stroke-width="1.25" stroke-linecap="round" stroke-linejoin="round"/>
<path d="M17.0312 27.2498C17.2043 27.1279 17.3465 26.9672 17.4463 26.7806C17.5462 26.5939 17.601 26.3864 17.6063 26.1748L17.65 25.1436L17.75 25.3373" stroke="#B20B18" stroke-width="1.25" stroke-linecap="round" stroke-linejoin="round"/>
<path d="M22.25 25.3374L22.4 26.4062C22.4105 26.6377 22.4942 26.8599 22.6391 27.0407C22.784 27.2216 22.9826 27.3517 23.2063 27.4124" stroke="#B20B18" stroke-width="1.25" stroke-linecap="round" stroke-linejoin="round"/>
<path d="M26.0498 28.3062C29.0748 29.4312 32.9248 31.4749 32.9248 34.6187" stroke="#B20B18" stroke-width="1.25" stroke-linecap="round" stroke-linejoin="round"/>
<path d="M17.6502 25.1436C17.6502 25.1436 13.9502 24.8061 13.9502 28.3061C14.7109 29.1512 15.6455 29.8218 16.6898 30.2716C17.7341 30.7215 18.8634 30.9401 20.0002 30.9123C21.1369 30.9401 22.2662 30.7215 23.3106 30.2716C24.3549 29.8218 25.2895 29.1512 26.0502 28.3061C26.0502 24.8061 22.3502 25.1436 22.3502 25.1436" stroke="#B20B18" stroke-width="1.25" stroke-linecap="round" stroke-linejoin="round"/>
<path d="M17.75 30.6187V34.6187" stroke="#B20B18" stroke-width="1.25" stroke-linecap="round" stroke-linejoin="round"/>
<path d="M22.25 30.6187V34.6187" stroke="#B20B18" stroke-width="1.25" stroke-linecap="round" stroke-linejoin="round"/>
</g>
<defs>
<clipPath id="clip0_671_1140">
<rect width="40" height="40" fill="white"/>
</clipPath>
</defs>
</svg>
