<svg width="42" height="39" viewBox="0 0 42 39" fill="none" xmlns="http://www.w3.org/2000/svg">
<path d="M29.5 25C36.4036 25 42 19.4036 42 12.5C42 5.59644 36.4036 0 29.5 0C22.5964 0 17 5.59644 17 12.5C17 19.4036 22.5964 25 29.5 25Z" fill="#F4D7D9"/>
<path d="M17.5125 37.5325C26.0798 37.5325 33.0249 30.5873 33.0249 22.02C33.0249 13.4527 26.0798 6.50757 17.5125 6.50757C8.94517 6.50757 2 13.4527 2 22.02C2 30.5873 8.94517 37.5325 17.5125 37.5325Z" stroke="#B20B18" stroke-width="2.62035" stroke-linecap="round" stroke-linejoin="round"/>
<path d="M17.513 22.5304C20.0311 22.5304 22.0724 20.4891 22.0724 17.971C22.0724 15.4529 20.0311 13.4116 17.513 13.4116C14.9949 13.4116 12.9536 15.4529 12.9536 17.971C12.9536 20.4891 14.9949 22.5304 17.513 22.5304Z" stroke="#B20B18" stroke-width="2.62035" stroke-linecap="round" stroke-linejoin="round"/>
<path d="M25.0331 34.5447V32.2912C25.0331 30.2966 24.2408 28.3838 22.8304 26.9734C21.4201 25.5631 19.5072 24.7708 17.5127 24.7708" stroke="#B20B18" stroke-width="2.62035" stroke-linecap="round" stroke-linejoin="round"/>
<path d="M17.5126 24.7708C15.5181 24.7708 13.6052 25.5631 12.1949 26.9734C10.7845 28.3838 9.99219 30.2966 9.99219 32.2912V35.4094" stroke="#B20B18" stroke-width="2.62035" stroke-linecap="round" stroke-linejoin="round"/>
</svg>
