<svg width="40" height="40" viewBox="0 0 40 40" fill="none" xmlns="http://www.w3.org/2000/svg">
<path d="M12.6748 22.6313C17.8352 22.6313 22.0186 18.448 22.0186 13.2876C22.0186 8.12719 17.8352 3.94385 12.6748 3.94385C7.51439 3.94385 3.33105 8.12719 3.33105 13.2876C3.33105 18.448 7.51439 22.6313 12.6748 22.6313Z" fill="#F4D7D9"/>
<path d="M31.4004 4.84375V5.59375" stroke="#B20B18" stroke-width="1.25" stroke-linecap="round" stroke-linejoin="round"/>
<path d="M34.3184 6.05615L33.7871 6.5874" stroke="#B20B18" stroke-width="1.25" stroke-linecap="round" stroke-linejoin="round"/>
<path d="M35.5254 8.9751H34.7754" stroke="#B20B18" stroke-width="1.25" stroke-linecap="round" stroke-linejoin="round"/>
<path d="M34.3184 11.8936L33.7871 11.3623" stroke="#B20B18" stroke-width="1.25" stroke-linecap="round" stroke-linejoin="round"/>
<path d="M31.4004 13.1001V12.3501" stroke="#B20B18" stroke-width="1.25" stroke-linecap="round" stroke-linejoin="round"/>
<path d="M28.4746 11.8936L29.0059 11.3623" stroke="#B20B18" stroke-width="1.25" stroke-linecap="round" stroke-linejoin="round"/>
<path d="M27.2686 8.9751H28.0186" stroke="#B20B18" stroke-width="1.25" stroke-linecap="round" stroke-linejoin="round"/>
<path d="M28.4746 6.05615L29.0059 6.5874" stroke="#B20B18" stroke-width="1.25" stroke-linecap="round" stroke-linejoin="round"/>
<path d="M31.4004 10.8501C32.4359 10.8501 33.2754 10.0106 33.2754 8.9751C33.2754 7.93956 32.4359 7.1001 31.4004 7.1001C30.3649 7.1001 29.5254 7.93956 29.5254 8.9751C29.5254 10.0106 30.3649 10.8501 31.4004 10.8501Z" stroke="#B20B18" stroke-width="1.25" stroke-linecap="round" stroke-linejoin="round"/>
<path d="M20.0625 10.3622C20.044 10.3499 20.0222 10.3433 20 10.3433C19.9778 10.3433 19.956 10.3499 19.9375 10.3622L8.6875 17.7935C8.49869 17.915 8.34284 18.0813 8.2338 18.2775C8.12476 18.4738 8.06592 18.694 8.0625 18.9185C8.0625 19.2765 8.20473 19.6199 8.45791 19.8731C8.71108 20.1262 9.05446 20.2685 9.4125 20.2685H9.71875C9.97562 20.2674 10.2269 20.1937 10.4437 20.056L20 13.9935L29.525 20.056C29.7418 20.1937 29.9931 20.2674 30.25 20.2685H30.5562C30.9143 20.2685 31.2577 20.1262 31.5108 19.8731C31.764 19.6199 31.9063 19.2765 31.9063 18.9185C31.9028 18.694 31.844 18.4738 31.7349 18.2775C31.6259 18.0813 31.4701 17.915 31.2813 17.7935L20.0625 10.3622Z" stroke="#B20B18" stroke-width="1.25" stroke-linecap="round" stroke-linejoin="round"/>
<path d="M9.98145 20.2686V30.0623" stroke="#B20B18" stroke-width="1.25" stroke-linecap="round" stroke-linejoin="round"/>
<path d="M33 32.9561H7V35.2811H33V32.9561Z" stroke="#B20B18" stroke-width="1.25" stroke-linecap="round" stroke-linejoin="round"/>
<path d="M10.5938 16.4877V12.3564H13.275V14.7689" stroke="#B20B18" stroke-width="1.25" stroke-linecap="round" stroke-linejoin="round"/>
<path d="M30.4004 30.3251V20.9126" stroke="#B20B18" stroke-width="1.25" stroke-linecap="round" stroke-linejoin="round"/>
<path d="M14.5875 32.5435C14.5913 32.2509 14.5148 31.9628 14.3663 31.7106C14.2178 31.4584 14.0029 31.2518 13.7451 31.1132C13.4874 30.9747 13.1965 30.9095 12.9042 30.9247C12.612 30.94 12.3295 31.0351 12.0875 31.1998C11.8003 30.8461 11.4117 30.5888 10.974 30.4625C10.5362 30.3361 10.0703 30.3469 9.6388 30.4932C9.20732 30.6395 8.83098 30.9144 8.56036 31.281C8.28974 31.6475 8.13781 32.0881 8.125 32.5435" stroke="#B20B18" stroke-width="1.25" stroke-linecap="round" stroke-linejoin="round"/>
<path d="M25.1749 32.5436C25.1711 32.2509 25.2476 31.9628 25.3961 31.7106C25.5447 31.4584 25.7595 31.2518 26.0173 31.1133C26.2751 30.9747 26.5659 30.9095 26.8582 30.9248C27.1505 30.94 27.433 31.0352 27.6749 31.1998C27.9554 30.8251 28.3469 30.5484 28.7938 30.409C29.2406 30.2697 29.72 30.2748 30.1638 30.4236C30.6075 30.5725 30.9931 30.8575 31.2655 31.2381C31.5379 31.6187 31.6834 32.0755 31.6812 32.5436" stroke="#B20B18" stroke-width="1.25" stroke-linecap="round" stroke-linejoin="round"/>
<path d="M21.6936 19.4627C21.6936 18.5238 20.9338 17.7627 19.9967 17.7627C19.0595 17.7627 18.2998 18.5238 18.2998 19.4627C18.2998 20.4016 19.0595 21.1627 19.9967 21.1627C20.9338 21.1627 21.6936 20.4016 21.6936 19.4627Z" stroke="#B20B18" stroke-width="1.25" stroke-linecap="round" stroke-linejoin="round"/>
<path d="M17.75 32.8626V26.5376C17.75 26.2421 17.8082 25.9495 17.9213 25.6766C18.0343 25.4036 18.2001 25.1555 18.409 24.9466C18.6179 24.7377 18.866 24.5719 19.139 24.4589C19.4119 24.3458 19.7045 24.2876 20 24.2876C20.2955 24.2876 20.5881 24.3458 20.861 24.4589C21.134 24.5719 21.3821 24.7377 21.591 24.9466C21.7999 25.1555 21.9657 25.4036 22.0787 25.6766C22.1918 25.9495 22.25 26.2421 22.25 26.5376V32.8626" stroke="#B20B18" stroke-width="1.25" stroke-linecap="round" stroke-linejoin="round"/>
<path d="M15.6129 21.6689H12.1191V25.1689H15.6129V21.6689Z" stroke="#B20B18" stroke-width="1.25" stroke-linecap="round" stroke-linejoin="round"/>
<path d="M27.875 25.1502V21.6689H24.375V25.1689H27.8813L27.875 25.1502Z" stroke="#B20B18" stroke-width="1.25" stroke-linecap="round" stroke-linejoin="round"/>
</svg>
