<svg width="40" height="40" viewBox="0 0 40 40" fill="none" xmlns="http://www.w3.org/2000/svg">
<g clip-path="url(#clip0_714_818)">
<path d="M26.9189 30.9937C31.5788 30.9937 35.3564 27.2161 35.3564 22.5562C35.3564 17.8962 31.5788 14.1187 26.9189 14.1187C22.259 14.1187 18.4814 17.8962 18.4814 22.5562C18.4814 27.2161 22.259 30.9937 26.9189 30.9937Z" fill="#F4D7D9"/>
<path d="M13.7129 27.825L15.8129 25.9688L20.0066 34.2063" stroke="#B20B18" stroke-width="1.25" stroke-linecap="round" stroke-linejoin="round"/>
<path d="M3.12466 36.8749C3.12466 36.8749 2.83091 33.7499 4.66841 31.6499" stroke="#B20B18" stroke-width="1.25" stroke-linecap="round" stroke-linejoin="round"/>
<path d="M24.1311 25.9688L19.9873 34.2063V36.875" stroke="#B20B18" stroke-width="1.25" stroke-linecap="round" stroke-linejoin="round"/>
<path d="M18.4434 20.1001C19.4434 21.2501 20.7559 21.0313 21.7496 20.1001" stroke="#B20B18" stroke-width="1.25" stroke-linecap="round" stroke-linejoin="round"/>
<path d="M13.5811 15.625C13.5811 15.625 14.0498 21.75 19.0311 24.025C19.3616 24.1718 19.7193 24.2476 20.0811 24.2476C20.4428 24.2476 20.8005 24.1718 21.1311 24.025C22.231 23.5101 23.2148 22.7769 24.0228 21.8702C24.8307 20.9634 25.4459 19.9018 25.8311 18.75C26.1428 17.7362 26.3172 16.6852 26.3498 15.625" stroke="#B20B18" stroke-width="1.25" stroke-linecap="round" stroke-linejoin="round"/>
<path d="M22.3879 9.3252C22.3879 9.3252 20.8316 12.1064 16.3441 12.1564H13.6504" stroke="#B20B18" stroke-width="1.25" stroke-linecap="round" stroke-linejoin="round"/>
<path d="M22.8252 11.1748C23.2269 11.8226 23.7993 12.3473 24.4795 12.6913C25.1597 13.0353 25.9216 13.1853 26.6814 13.1248" stroke="#B20B18" stroke-width="1.25" stroke-linecap="round" stroke-linejoin="round"/>
<path d="M10.3249 20.0002V13.0002C10.2955 10.4977 11.2265 8.07913 12.9262 6.24221C14.6259 4.40528 16.9651 3.28976 19.4624 3.12522C20.7625 3.06166 22.0619 3.26316 23.2817 3.71746C24.5015 4.17176 25.6162 4.86937 26.558 5.76789C27.4998 6.66642 28.249 7.74707 28.7601 8.94418C29.2712 10.1413 29.5335 11.4298 29.5311 12.7315V22.0065" stroke="#B20B18" stroke-width="1.25" stroke-linecap="round" stroke-linejoin="round"/>
<path d="M13.7125 27.8252L11.975 29.7877L14.3938 31.1127L11.875 32.4877L16.4188 36.8752" stroke="#B20B18" stroke-width="1.25" stroke-linecap="round" stroke-linejoin="round"/>
<path d="M11.4375 26.1627C11.4377 25.518 11.2614 24.8855 10.9277 24.3339C10.594 23.7823 10.1157 23.3325 9.54453 23.0334C8.97341 22.7343 8.3313 22.5973 7.68782 22.6371C7.04435 22.677 6.42407 22.8923 5.89425 23.2596C5.36443 23.627 4.94528 24.1323 4.68225 24.7209C4.41922 25.3096 4.32236 25.9589 4.40215 26.5987C4.48195 27.2384 4.73537 27.8441 5.13492 28.3501C5.53448 28.8561 6.06493 29.243 6.66875 29.4689V32.9502L7.425 33.7064L6.4875 34.6439L8.59375 36.7502C8.65318 36.8094 8.72882 36.8497 8.81112 36.866C8.89343 36.8823 8.97872 36.8739 9.05625 36.8419C9.13378 36.8098 9.20008 36.7555 9.2468 36.6858C9.29351 36.6161 9.31855 36.5341 9.31875 36.4502V29.3752C9.94477 29.102 10.4781 28.6531 10.8542 28.0829C11.2302 27.5127 11.4329 26.8457 11.4375 26.1627Z" stroke="#B20B18" stroke-width="1.25" stroke-linecap="round" stroke-linejoin="round"/>
<path d="M16.8746 23.0439C16.8746 23.0439 17.2496 25.9127 16.4121 27.1252" stroke="#B20B18" stroke-width="1.25" stroke-linecap="round" stroke-linejoin="round"/>
<path d="M22.8687 23.0439C22.8687 23.0439 22.5062 25.9127 23.3 27.1252" stroke="#B20B18" stroke-width="1.25" stroke-linecap="round" stroke-linejoin="round"/>
<path d="M11.4375 26.1627C11.4377 25.518 11.2614 24.8855 10.9277 24.3339C10.594 23.7823 10.1157 23.3325 9.54453 23.0334C8.97341 22.7343 8.3313 22.5973 7.68782 22.6371C7.04435 22.677 6.42407 22.8923 5.89425 23.2596C5.36443 23.627 4.94528 24.1323 4.68225 24.7209C4.41922 25.3096 4.32236 25.9589 4.40215 26.5987C4.48195 27.2384 4.73537 27.8441 5.13492 28.3501C5.53448 28.8561 6.06493 29.243 6.66875 29.4689V32.9502L7.425 33.7064L6.4875 34.6439L8.59375 36.7502C8.65318 36.8094 8.72882 36.8497 8.81112 36.866C8.89343 36.8823 8.97872 36.8739 9.05625 36.8419C9.13378 36.8098 9.20008 36.7555 9.2468 36.6858C9.29351 36.6161 9.31855 36.5341 9.31875 36.4502V29.3752C9.94477 29.102 10.4781 28.6531 10.8542 28.0829C11.2302 27.5127 11.4329 26.8457 11.4375 26.1627Z" stroke="#B20B18" stroke-width="1.25" stroke-linecap="round" stroke-linejoin="round"/>
<path d="M31.2814 37.5189C34.7263 37.5189 37.5189 34.7263 37.5189 31.2814C37.5189 27.8366 34.7263 25.0439 31.2814 25.0439C27.8366 25.0439 25.0439 27.8366 25.0439 31.2814C25.0439 34.7263 27.8366 37.5189 31.2814 37.5189Z" stroke="#B20B18" stroke-width="1.25" stroke-linecap="round" stroke-linejoin="round"/>
<path d="M27.9248 30.8312L31.2811 28.1499L34.6311 30.8312" stroke="#B20B18" stroke-width="1.25" stroke-linecap="round" stroke-linejoin="round"/>
<path d="M30.4375 34.4127V31.8252H32.125V34.4127" stroke="#B20B18" stroke-width="1.25" stroke-linecap="round" stroke-linejoin="round"/>
<path d="M28.8184 30.2314V34.4127H33.7371V30.2314" stroke="#B20B18" stroke-width="1.25" stroke-linecap="round" stroke-linejoin="round"/>
<path d="M29.5498 29.4188V28.2563" stroke="#B20B18" stroke-width="1.25" stroke-linecap="round" stroke-linejoin="round"/>
</g>
<defs>
<clipPath id="clip0_714_818">
<rect width="40" height="40" fill="white"/>
</clipPath>
</defs>
</svg>
