<svg width="41" height="38" viewBox="0 0 41 38" fill="none" xmlns="http://www.w3.org/2000/svg">
<path d="M30 24C36.0751 24 41 18.8513 41 12.5C41 6.14873 36.0751 1 30 1C23.9249 1 19 6.14873 19 12.5C19 18.8513 23.9249 24 30 24Z" fill="#FFEEF0"/>
<path d="M36.6546 26.8486H1V29.3603H36.6546V26.8486Z" stroke="#CC6D6D" stroke-linecap="round" stroke-linejoin="round"/>
<path d="M36.6546 26.8486H1V29.3603H36.6546V26.8486Z" stroke="black" stroke-opacity="0.2" stroke-linecap="round" stroke-linejoin="round"/>
<path d="M36.6546 14.458H1V16.9696H36.6546V14.458Z" stroke="#CC6D6D" stroke-linecap="round" stroke-linejoin="round"/>
<path d="M36.6546 14.458H1V16.9696H36.6546V14.458Z" stroke="black" stroke-opacity="0.2" stroke-linecap="round" stroke-linejoin="round"/>
<path d="M5.29199 37V10.4461C5.29199 9.20559 5.3475 7.97726 5.45534 6.83121C5.56318 5.68516 5.72124 4.64384 5.92051 3.76669C6.11977 2.88954 6.35633 2.19375 6.61668 1.71904C6.87703 1.24433 7.15607 1 7.43787 1C7.71967 1 7.99871 1.24433 8.25906 1.71904C8.51941 2.19375 8.75597 2.88954 8.95524 3.76669C9.1545 4.64384 9.31256 5.68516 9.4204 6.83121C9.52824 7.97726 9.58375 9.20559 9.58375 10.4461V37" stroke="#CC6D6D" stroke-linecap="round" stroke-linejoin="round"/>
<path d="M5.29199 37V10.4461C5.29199 9.20559 5.3475 7.97726 5.45534 6.83121C5.56318 5.68516 5.72124 4.64384 5.92051 3.76669C6.11977 2.88954 6.35633 2.19375 6.61668 1.71904C6.87703 1.24433 7.15607 1 7.43787 1C7.71967 1 7.99871 1.24433 8.25906 1.71904C8.51941 2.19375 8.75597 2.88954 8.95524 3.76669C9.1545 4.64384 9.31256 5.68516 9.4204 6.83121C9.52824 7.97726 9.58375 9.20559 9.58375 10.4461V37" stroke="black" stroke-opacity="0.2" stroke-linecap="round" stroke-linejoin="round"/>
<path d="M28.0713 37V10.4461C28.0713 9.20559 28.1268 7.97726 28.2346 6.83121C28.3425 5.68516 28.5005 4.64384 28.6998 3.76669C28.8991 2.88954 29.1356 2.19375 29.396 1.71904C29.6563 1.24433 29.9354 1 30.2172 1C30.499 1 30.778 1.24433 31.0384 1.71904C31.2987 2.19375 31.5353 2.88954 31.7345 3.76669C31.9338 4.64384 32.0919 5.68516 32.1997 6.83121C32.3075 7.97726 32.363 9.20559 32.363 10.4461V37" stroke="#CC6D6D" stroke-linecap="round" stroke-linejoin="round"/>
<path d="M28.0713 37V10.4461C28.0713 9.20559 28.1268 7.97726 28.2346 6.83121C28.3425 5.68516 28.5005 4.64384 28.6998 3.76669C28.8991 2.88954 29.1356 2.19375 29.396 1.71904C29.6563 1.24433 29.9354 1 30.2172 1C30.499 1 30.778 1.24433 31.0384 1.71904C31.2987 2.19375 31.5353 2.88954 31.7345 3.76669C31.9338 4.64384 32.0919 5.68516 32.1997 6.83121C32.3075 7.97726 32.363 9.20559 32.363 10.4461V37" stroke="black" stroke-opacity="0.2" stroke-linecap="round" stroke-linejoin="round"/>
<path d="M20.4785 37V10.4461C20.4785 9.20559 20.534 7.97726 20.6419 6.83121C20.7497 5.68516 20.9078 4.64384 21.107 3.76669C21.3063 2.88954 21.5429 2.19375 21.8032 1.71904C22.0636 1.24433 22.3426 1 22.6244 1C22.9062 1 23.1852 1.24433 23.4456 1.71904C23.7059 2.19375 23.9425 2.88954 24.1418 3.76669C24.341 4.64384 24.4991 5.68516 24.6069 6.83121C24.7148 7.97726 24.7703 9.20559 24.7703 10.4461V37" stroke="#CC6D6D" stroke-linecap="round" stroke-linejoin="round"/>
<path d="M20.4785 37V10.4461C20.4785 9.20559 20.534 7.97726 20.6419 6.83121C20.7497 5.68516 20.9078 4.64384 21.107 3.76669C21.3063 2.88954 21.5429 2.19375 21.8032 1.71904C22.0636 1.24433 22.3426 1 22.6244 1C22.9062 1 23.1852 1.24433 23.4456 1.71904C23.7059 2.19375 23.9425 2.88954 24.1418 3.76669C24.341 4.64384 24.4991 5.68516 24.6069 6.83121C24.7148 7.97726 24.7703 9.20559 24.7703 10.4461V37" stroke="black" stroke-opacity="0.2" stroke-linecap="round" stroke-linejoin="round"/>
<path d="M12.8848 37V10.4461C12.8848 9.20559 12.9403 7.97726 13.0481 6.83121C13.156 5.68516 13.314 4.64384 13.5133 3.76669C13.7125 2.88954 13.9491 2.19375 14.2095 1.71904C14.4698 1.24433 14.7488 1 15.0306 1C15.3124 1 15.5915 1.24433 15.8518 1.71904C16.1122 2.19375 16.3487 2.88954 16.548 3.76669C16.7473 4.64384 16.9053 5.68516 17.0132 6.83121C17.121 7.97726 17.1765 9.20559 17.1765 10.4461V37" stroke="#CC6D6D" stroke-linecap="round" stroke-linejoin="round"/>
<path d="M12.8848 37V10.4461C12.8848 9.20559 12.9403 7.97726 13.0481 6.83121C13.156 5.68516 13.314 4.64384 13.5133 3.76669C13.7125 2.88954 13.9491 2.19375 14.2095 1.71904C14.4698 1.24433 14.7488 1 15.0306 1C15.3124 1 15.5915 1.24433 15.8518 1.71904C16.1122 2.19375 16.3487 2.88954 16.548 3.76669C16.7473 4.64384 16.9053 5.68516 17.0132 6.83121C17.121 7.97726 17.1765 9.20559 17.1765 10.4461V37" stroke="black" stroke-opacity="0.2" stroke-linecap="round" stroke-linejoin="round"/>
</svg>
