<svg width="40" height="40" viewBox="0 0 40 40" fill="none" xmlns="http://www.w3.org/2000/svg">
<g clip-path="url(#clip0_192_474)">
<path d="M12.2124 27.0752C16.8723 27.0752 20.6499 23.2976 20.6499 18.6377C20.6499 13.9778 16.8723 10.2002 12.2124 10.2002C7.5525 10.2002 3.7749 13.9778 3.7749 18.6377C3.7749 23.2976 7.5525 27.0752 12.2124 27.0752Z" fill="#FFEEF0"/>
<path d="M26.3625 13.6188C26.3625 13.6188 23.675 13.2438 22.1187 11.375C18.75 14.8688 13.6875 14.8062 13.6875 14.8062V18.65C13.6875 20.3308 14.3552 21.9428 15.5437 23.1313C16.7322 24.3198 18.3442 24.9875 20.025 24.9875C21.7058 24.9875 23.3178 24.3198 24.5063 23.1313C25.6948 21.9428 26.3625 20.3308 26.3625 18.65V13.65" stroke="#AD1616" stroke-linecap="round" stroke-linejoin="round"/>
<path d="M13.6875 14.8065H12.4375V13.4627C12.4375 12.4007 12.647 11.3491 13.054 10.3682C13.4609 9.38728 14.0574 8.49627 14.8092 7.74619C15.5611 6.99611 16.4535 6.4017 17.4353 5.997C18.4172 5.5923 19.4692 5.38525 20.5312 5.38772V5.38772C20.746 5.38689 20.9588 5.42848 21.1574 5.51009C21.3561 5.5917 21.5366 5.71173 21.6888 5.86328C21.8409 6.01484 21.9616 6.19495 22.044 6.39327C22.1264 6.59159 22.1688 6.80422 22.1688 7.01897V7.23772C22.9007 7.28624 23.6278 7.39071 24.3438 7.55022C25.2566 7.75197 26.0735 8.25875 26.6598 8.98702C27.246 9.71528 27.5666 10.6216 27.5688 11.5565V11.5565" stroke="#AD1616" stroke-linecap="round" stroke-linejoin="round"/>
<path d="M17.7251 20.5811C18.3387 21.1841 19.1647 21.5221 20.0251 21.5221C20.8855 21.5221 21.7115 21.1841 22.3251 20.5811" stroke="#AD1616" stroke-linecap="round" stroke-linejoin="round"/>
<path d="M13.6376 18.3874C13.181 18.3604 12.752 18.16 12.4382 17.8272C12.1245 17.4943 11.9497 17.0542 11.9497 16.5968C11.9497 16.1394 12.1245 15.6992 12.4382 15.3664C12.752 15.0335 13.181 14.8331 13.6376 14.8062" stroke="#AD1616" stroke-linecap="round" stroke-linejoin="round"/>
<path d="M26.3623 18.3876C26.6064 18.402 26.8508 18.3664 27.0806 18.2829C27.3103 18.1995 27.5206 18.0699 27.6985 17.9022C27.8764 17.7345 28.0182 17.5323 28.115 17.3078C28.2119 17.0833 28.2619 16.8414 28.2619 16.597C28.2619 16.3525 28.2119 16.1106 28.115 15.8862C28.0182 15.6617 27.8764 15.4594 27.6985 15.2917C27.5206 15.124 27.3103 14.9945 27.0806 14.911C26.8508 14.8275 26.6064 14.7919 26.3623 14.8063" stroke="#AD1616" stroke-linecap="round" stroke-linejoin="round"/>
<path d="M17.0312 27.25C17.8585 27.9551 18.9131 28.337 20 28.325C21.1327 28.318 22.2417 28.0002 23.2063 27.4062" stroke="#AD1616" stroke-linecap="round" stroke-linejoin="round"/>
<path d="M7.0874 34.6186C7.08893 33.9909 7.24338 33.3731 7.5374 32.8186C8.6374 30.6748 11.5437 29.1998 13.9499 28.2998" stroke="#AD1616" stroke-linecap="round" stroke-linejoin="round"/>
<path d="M17.0312 27.2498C17.2043 27.1279 17.3465 26.9672 17.4463 26.7806C17.5462 26.5939 17.601 26.3864 17.6063 26.1748L17.65 25.1436L17.75 25.3373" stroke="#AD1616" stroke-linecap="round" stroke-linejoin="round"/>
<path d="M22.25 25.3374L22.4 26.4062C22.4105 26.6377 22.4942 26.8599 22.6391 27.0407C22.784 27.2216 22.9826 27.3517 23.2063 27.4124" stroke="#AD1616" stroke-linecap="round" stroke-linejoin="round"/>
<path d="M26.0498 28.3062C29.0748 29.4312 32.9248 31.4749 32.9248 34.6187" stroke="#AD1616" stroke-linecap="round" stroke-linejoin="round"/>
<path d="M17.6502 25.1436C17.6502 25.1436 13.9502 24.8061 13.9502 28.3061C14.7109 29.1512 15.6455 29.8218 16.6898 30.2716C17.7341 30.7215 18.8634 30.9401 20.0002 30.9123C21.1369 30.9401 22.2662 30.7215 23.3106 30.2716C24.3549 29.8218 25.2895 29.1512 26.0502 28.3061C26.0502 24.8061 22.3502 25.1436 22.3502 25.1436" stroke="#AD1616" stroke-linecap="round" stroke-linejoin="round"/>
<path d="M17.75 30.6187V34.6187" stroke="#AD1616" stroke-linecap="round" stroke-linejoin="round"/>
<path d="M22.25 30.6187V34.6187" stroke="#AD1616" stroke-linecap="round" stroke-linejoin="round"/>
</g>
<defs>
<clipPath id="clip0_192_474">
<rect width="40" height="40" fill="white"/>
</clipPath>
</defs>
</svg>
