<svg width="34" height="42" viewBox="0 0 34 42" fill="none" xmlns="http://www.w3.org/2000/svg">
<path d="M12 34.1724C18.6274 34.1724 24 28.7998 24 22.1724C24 15.5449 18.6274 10.1724 12 10.1724C5.37258 10.1724 0 15.5449 0 22.1724C0 28.7998 5.37258 34.1724 12 34.1724Z" fill="#F4D7D9"/>
<path d="M9.67041 35.5129L11.9204 31.3662H11.982V34.2928C11.9834 34.3198 11.9915 34.3458 12.0055 34.368C12.0195 34.3901 12.0388 34.4075 12.0612 34.4181C12.0837 34.4288 12.1083 34.4322 12.1325 34.4282C12.1566 34.4241 12.1792 34.4127 12.1978 34.3952L13.5231 32.9532V34.6597L15.0642 32.9532C15.0642 32.9532 15.0642 34.6597 17.3759 34.6597H18.7397" stroke="#B20B18" stroke-linecap="round" stroke-linejoin="round"/>
<path d="M32.9869 23.8757V10.1728L24.7266 1.01758H6.58799C6.44015 1.01982 6.29905 1.08643 6.19522 1.203C6.09139 1.31957 6.03319 1.47671 6.0332 1.64044V40.3772C6.03319 40.5409 6.09139 40.6981 6.19522 40.8147C6.29905 40.9312 6.44015 40.9978 6.58799 41.0001H32.4321C32.5799 40.9978 32.721 40.9312 32.8248 40.8147C32.9287 40.6981 32.9869 40.5409 32.9869 40.3772V23.8757Z" stroke="#B20B18" stroke-linecap="round" stroke-linejoin="round"/>
<path d="M24.7266 9.53233V1L32.9868 10.1723H25.2814C25.1321 10.1656 24.991 10.0953 24.8876 9.97601C24.7841 9.85671 24.7264 9.6977 24.7266 9.53233Z" stroke="#B20B18" stroke-linecap="round" stroke-linejoin="round"/>
<path d="M10.4409 18.688H17.2911" stroke="#B20B18" stroke-linecap="round" stroke-linejoin="round"/>
<path d="M19.6875 18.688H24.9966" stroke="#B20B18" stroke-linecap="round" stroke-linejoin="round"/>
<path d="M10.4409 22.8091H12.6678" stroke="#B20B18" stroke-linecap="round" stroke-linejoin="round"/>
<path d="M15.064 22.8091H22.4843" stroke="#B20B18" stroke-linecap="round" stroke-linejoin="round"/>
<path d="M10.4409 26.9302H14.9794" stroke="#B20B18" stroke-linecap="round" stroke-linejoin="round"/>
<path d="M17.3755 26.9302H18.8318" stroke="#B20B18" stroke-linecap="round" stroke-linejoin="round"/>
</svg>
