<svg width="217" height="28" viewBox="0 0 217 28" fill="none" xmlns="http://www.w3.org/2000/svg">
<g filter="url(#filter0_dd_671_1097)">
<rect x="2" y="3" width="200" height="22" rx="4" fill="white"/>
<rect x="1.75" y="2.75" width="200.5" height="22.5" rx="4.25" stroke="black" stroke-opacity="0.05" stroke-width="0.5"/>
</g>
<path d="M16.721 16.608C16.721 13.228 11.729 14.84 11.729 12.214C11.729 11.161 12.613 10.576 13.679 10.589C14.94 10.602 15.551 11.382 15.655 12.019H16.643C16.487 10.771 15.447 9.809 13.718 9.809C11.963 9.809 10.806 10.836 10.806 12.24C10.806 15.659 15.798 13.969 15.798 16.647C15.798 17.583 15.057 18.324 13.796 18.324C12.327 18.324 11.768 17.414 11.69 16.66H10.728C10.78 18.051 11.976 19.091 13.796 19.091C15.72 19.091 16.721 17.843 16.721 16.608ZM21.5885 12.578C22.9015 12.578 24.0975 13.41 24.0585 15.061H19.0665C19.1705 13.41 20.3015 12.578 21.5885 12.578ZM24.8775 16.751H23.9155C23.6555 17.7 22.8365 18.337 21.6275 18.337C20.3015 18.337 19.1445 17.466 19.0665 15.802H24.9555C24.9815 15.555 24.9815 15.373 24.9815 15.087C24.9815 13.28 23.7075 11.798 21.6275 11.798C19.5865 11.798 18.1435 13.189 18.1435 15.451C18.1435 17.7 19.6125 19.104 21.6275 19.104C23.4085 19.104 24.5525 18.09 24.8775 16.751ZM26.7264 19H27.6364V9.38H26.7264V19ZM32.8061 12.578C34.1191 12.578 35.3151 13.41 35.2761 15.061H30.2841C30.3881 13.41 31.5191 12.578 32.8061 12.578ZM36.0951 16.751H35.1331C34.8731 17.7 34.0541 18.337 32.8451 18.337C31.5191 18.337 30.3621 17.466 30.2841 15.802H36.1731C36.1991 15.555 36.1991 15.373 36.1991 15.087C36.1991 13.28 34.9251 11.798 32.8451 11.798C30.8041 11.798 29.3611 13.189 29.3611 15.451C29.3611 17.7 30.8301 19.104 32.8451 19.104C34.6261 19.104 35.7701 18.09 36.0951 16.751ZM37.528 15.451C37.528 17.7 38.971 19.104 40.973 19.104C42.754 19.104 43.911 18.103 44.236 16.686H43.261C43.014 17.726 42.169 18.337 40.973 18.337C39.582 18.337 38.451 17.375 38.451 15.451C38.451 13.527 39.582 12.578 40.973 12.578C42.169 12.578 43.027 13.202 43.261 14.216H44.236C43.911 12.747 42.754 11.798 40.973 11.798C38.971 11.798 37.528 13.202 37.528 15.451ZM46.2566 17.076C46.2566 18.493 46.9196 19 48.1546 19H49.1296V18.22H48.2976C47.4786 18.22 47.1796 17.947 47.1796 17.076V12.669H49.1296V11.902H47.1796V10.121H46.2566V11.902H45.2686V12.669H46.2566V17.076ZM59.5318 16.478C59.5318 17.57 58.7518 18.233 57.4388 18.233H55.2678V14.684H57.3998C58.6998 14.684 59.5318 15.386 59.5318 16.478ZM59.3108 12.292C59.3108 13.306 58.6218 13.93 57.3868 13.93H55.2678V10.68H57.3478C58.6608 10.68 59.3108 11.317 59.3108 12.292ZM60.4418 16.569C60.4418 15.425 59.6228 14.489 58.6088 14.307C59.4798 14.06 60.2338 13.397 60.2338 12.201C60.2338 10.927 59.3238 9.913 57.4128 9.913H54.3578V19H57.5038C59.4148 19 60.4418 17.934 60.4418 16.569ZM63.1046 15.035C63.1046 13.254 64.1056 12.721 65.2886 12.721H65.5356V11.772C64.3136 11.772 63.4946 12.292 63.1046 13.163V11.902H62.1946V19H63.1046V15.035ZM66.5686 15.438C66.5686 17.661 68.0116 19.104 69.9486 19.104C71.3656 19.104 72.3536 18.337 72.7696 17.427V19H73.6796V11.902H72.7696V13.462C72.3666 12.565 71.3916 11.798 69.9616 11.798C68.0116 11.798 66.5686 13.215 66.5686 15.438ZM72.7696 15.451C72.7696 17.219 71.5866 18.311 70.1306 18.311C68.6356 18.311 67.4916 17.232 67.4916 15.438C67.4916 13.631 68.6356 12.591 70.1306 12.591C71.5866 12.591 72.7696 13.683 72.7696 15.451ZM81.1541 19H82.0511V14.84C82.0511 12.76 80.7771 11.772 79.1651 11.772C78.1121 11.772 77.2021 12.227 76.7471 13.111V11.902H75.8371V19H76.7471V15.126C76.7471 13.397 77.6701 12.565 78.9961 12.565C80.2961 12.565 81.1541 13.371 81.1541 14.944V19ZM83.7276 15.451C83.7276 17.7 85.1706 19.104 87.1726 19.104C88.9536 19.104 90.1106 18.103 90.4356 16.686H89.4606C89.2136 17.726 88.3686 18.337 87.1726 18.337C85.7816 18.337 84.6506 17.375 84.6506 15.451C84.6506 13.527 85.7816 12.578 87.1726 12.578C88.3686 12.578 89.2266 13.202 89.4606 14.216H90.4356C90.1106 12.747 88.9536 11.798 87.1726 11.798C85.1706 11.798 83.7276 13.202 83.7276 15.451ZM92.1963 19H93.1063V15.126C93.1063 13.397 94.0293 12.565 95.3553 12.565C96.6553 12.565 97.5133 13.371 97.5133 14.944V19H98.4103V14.84C98.4103 12.76 97.1493 11.772 95.5763 11.772C94.4973 11.772 93.5613 12.24 93.1063 13.111V9.38H92.1963V19Z" fill="#27292A"/>
<path d="M193 16L190.053 18.947C190.024 18.9763 189.976 18.9763 189.947 18.947L187 16" stroke="#27292A" stroke-width="1.5" stroke-linecap="round"/>
<path d="M193 12L190.053 9.05303C190.024 9.02374 189.976 9.02374 189.947 9.05303L187 12" stroke="#27292A" stroke-width="1.5" stroke-linecap="round"/>
<defs>
<filter id="filter0_dd_671_1097" x="0.5" y="2" width="203" height="25.5" filterUnits="userSpaceOnUse" color-interpolation-filters="sRGB">
<feFlood flood-opacity="0" result="BackgroundImageFix"/>
<feColorMatrix in="SourceAlpha" type="matrix" values="0 0 0 0 0 0 0 0 0 0 0 0 0 0 0 0 0 0 127 0" result="hardAlpha"/>
<feOffset dy="1"/>
<feGaussianBlur stdDeviation="0.5"/>
<feColorMatrix type="matrix" values="0 0 0 0 0 0 0 0 0 0 0 0 0 0 0 0 0 0 0.05 0"/>
<feBlend mode="normal" in2="BackgroundImageFix" result="effect1_dropShadow_671_1097"/>
<feColorMatrix in="SourceAlpha" type="matrix" values="0 0 0 0 0 0 0 0 0 0 0 0 0 0 0 0 0 0 127 0" result="hardAlpha"/>
<feOffset dy="0.5"/>
<feGaussianBlur stdDeviation="0.5"/>
<feColorMatrix type="matrix" values="0 0 0 0 0 0 0 0 0 0 0 0 0 0 0 0 0 0 0.1 0"/>
<feBlend mode="normal" in2="effect1_dropShadow_671_1097" result="effect2_dropShadow_671_1097"/>
<feBlend mode="normal" in="SourceGraphic" in2="effect2_dropShadow_671_1097" result="shape"/>
</filter>
</defs>
</svg>
