<svg width="41" height="42" viewBox="0 0 41 42" fill="none" xmlns="http://www.w3.org/2000/svg">
<path d="M13.4959 4.74085C13.4959 4.74085 12.9275 4.66154 12.5984 4.26632C11.886 5.00521 10.8153 4.992 10.8153 4.992M10.8153 4.992V5.80492C10.8153 6.16039 10.9565 6.50131 11.2079 6.75267C11.4592 7.00403 11.8001 7.14524 12.1556 7.14524C12.5111 7.14524 12.852 7.00403 13.1034 6.75267C13.3547 6.50131 13.4959 6.16039 13.4959 5.80492V4.74746M10.8153 4.992L10.5509 4.99199V4.7078C10.5509 4.48319 10.5952 4.26079 10.6813 4.05334C10.7674 3.84588 10.8935 3.65744 11.0525 3.4988C11.2115 3.34017 11.4003 3.21445 11.6079 3.12886C11.8156 3.04327 12.0381 2.99948 12.2627 3C12.3081 2.99983 12.3531 3.00863 12.3951 3.02589C12.4371 3.04315 12.4753 3.06853 12.5075 3.10058C12.5397 3.13264 12.5652 3.17073 12.5826 3.21267C12.6 3.25461 12.609 3.29958 12.609 3.345V3.39126C12.7638 3.40153 12.9176 3.42362 13.069 3.45736C13.2621 3.50002 13.4348 3.6072 13.5588 3.76123C13.6828 3.91525 13.7506 4.10692 13.751 4.30464M11.6692 6.21336C11.799 6.34091 11.9736 6.41238 12.1556 6.41238C12.3376 6.41238 12.5123 6.34091 12.642 6.21336M10.8047 5.7494C10.7081 5.74369 10.6174 5.70131 10.551 5.63091C10.4847 5.56052 10.4477 5.46744 10.4477 5.3707C10.4477 5.27396 10.4847 5.18087 10.551 5.11048C10.6174 5.04009 10.7081 4.9977 10.8047 4.99199M13.4959 5.74941C13.5475 5.75246 13.5992 5.74493 13.6478 5.72728C13.6964 5.70963 13.7409 5.68223 13.7785 5.64676C13.8162 5.6113 13.8461 5.56852 13.8666 5.52104C13.8871 5.47357 13.8977 5.42242 13.8977 5.37071C13.8977 5.31901 13.8871 5.26785 13.8666 5.22038C13.8461 5.17291 13.8162 5.13013 13.7785 5.09466C13.7409 5.0592 13.6964 5.0318 13.6478 5.01414C13.5992 4.99649 13.5475 4.98896 13.4959 4.99201M12.8284 7.65681C12.6244 7.78242 12.3899 7.84964 12.1503 7.85112C11.9204 7.85365 11.6974 7.77289 11.5225 7.62376C11.5591 7.59799 11.5891 7.56398 11.6102 7.5245C11.6314 7.48503 11.6429 7.44115 11.6441 7.39639L11.6533 7.17829M9.41943 9.18218C9.41976 9.04944 9.45242 8.91877 9.5146 8.8015C9.74725 8.34811 10.3619 8.03616 10.8708 7.84582M11.6533 7.17829L11.6745 7.21927M11.6533 7.17829C11.6533 7.17829 10.8708 7.10691 10.8708 7.84713C11.0317 8.02587 11.2293 8.16768 11.4502 8.26282C11.6711 8.35797 11.9099 8.4042 12.1503 8.39833C12.3907 8.4042 12.6296 8.35797 12.8504 8.26282C13.0713 8.16768 13.269 8.02588 13.4298 7.84714M12.6262 7.21928L12.6579 7.44531C12.6601 7.49427 12.6778 7.54127 12.7085 7.57951C12.7391 7.61776 12.7811 7.64529 12.8284 7.65812M13.4298 7.84714C14.0696 8.08507 14.8838 8.51731 14.8838 9.18218M13.4298 7.84714C13.4298 7.10692 12.6473 7.17829 12.6473 7.17829M11.6745 8.33621V9.18218M12.6262 8.33621V9.18218" stroke="#B20B18" stroke-width="0.264364" stroke-linecap="round" stroke-linejoin="round"/>
<path d="M12 34.1722C18.6274 34.1722 24 28.7997 24 22.1722C24 15.5448 18.6274 10.1722 12 10.1722C5.37258 10.1722 0 15.5448 0 22.1722C0 28.7997 5.37258 34.1722 12 34.1722Z" fill="#F4D7D9"/>
<path d="M9.67041 35.5132L11.9204 31.3665H11.982V34.293C11.9834 34.32 11.9915 34.3461 12.0055 34.3682C12.0195 34.3903 12.0388 34.4077 12.0612 34.4184C12.0837 34.429 12.1083 34.4325 12.1325 34.4284C12.1566 34.4244 12.1792 34.413 12.1978 34.3954L13.5231 32.9535V34.6599L15.0642 32.9535C15.0642 32.9535 15.0642 34.6599 17.3759 34.6599H18.7397" stroke="#B20B18" stroke-linecap="round" stroke-linejoin="round"/>
<path d="M32.9869 16.6913V10.1726L24.7266 1.01746H6.58799C6.44015 1.0197 6.29905 1.08631 6.19522 1.20288C6.09139 1.31944 6.03319 1.47659 6.0332 1.64032V40.3771C6.03319 40.5408 6.09139 40.698 6.19522 40.8145C6.29905 40.9311 6.44015 40.9977 6.58799 41H32.4321C32.5799 40.9977 32.721 40.9311 32.8248 40.8145C32.9287 40.698 32.9869 40.5408 32.9869 40.3771V23.8756" stroke="#B20B18" stroke-linecap="round" stroke-linejoin="round"/>
<path d="M24.7266 9.53233V1L32.9868 10.1723H25.2814C25.1321 10.1656 24.991 10.0953 24.8876 9.97601C24.7841 9.85671 24.7264 9.6977 24.7266 9.53233Z" stroke="#B20B18" stroke-linecap="round" stroke-linejoin="round"/>
<path d="M10.4409 18.6879H17.2911" stroke="#B20B18" stroke-linecap="round" stroke-linejoin="round"/>
<path d="M19.6875 18.6879H24.9966" stroke="#B20B18" stroke-linecap="round" stroke-linejoin="round"/>
<path d="M10.4409 22.8091H12.6678" stroke="#B20B18" stroke-linecap="round" stroke-linejoin="round"/>
<path d="M15.064 22.8091H22.4843" stroke="#B20B18" stroke-linecap="round" stroke-linejoin="round"/>
<path d="M10.4409 26.9303H14.9794" stroke="#B20B18" stroke-linecap="round" stroke-linejoin="round"/>
<path d="M17.3755 26.9303H18.8318" stroke="#B20B18" stroke-linecap="round" stroke-linejoin="round"/>
<path fill-rule="evenodd" clip-rule="evenodd" d="M19.7721 31.2984L35.3603 14.0375C35.4612 13.9251 35.5813 13.8358 35.7135 13.7749C35.8458 13.714 35.9876 13.6826 36.1308 13.6826C36.274 13.6826 36.4158 13.714 36.5481 13.7749C36.6803 13.8358 36.8004 13.9251 36.9014 14.0375L38.4424 15.744C38.545 15.8552 38.6264 15.988 38.682 16.1345C38.7376 16.281 38.7662 16.4383 38.7662 16.5972C38.7662 16.7562 38.7376 16.9135 38.682 17.06C38.6264 17.2065 38.545 17.3392 38.4424 17.4505L22.8081 34.6602C22.5846 34.9076 18.886 36.0765 18.3081 36.2899C18.493 35.6414 19.5487 31.5544 19.7721 31.307V31.2984Z" stroke="#B20B18" stroke-linecap="round" stroke-linejoin="round"/>
<path d="M26.7226 23.6107L29.7508 26.981M27.8553 29.0799L24.8193 25.7267" stroke="#B20B18" stroke-linecap="round" stroke-linejoin="round"/>
<path d="M36.6929 13.8496L37.7408 12.6892C37.9893 12.4146 38.326 12.2604 38.677 12.2604C39.0281 12.2604 39.3648 12.4146 39.6132 12.6892C39.7358 12.8247 39.833 12.9856 39.8993 13.1628C39.9657 13.3399 39.9998 13.5298 39.9998 13.7216C39.9998 13.9134 39.9657 14.1033 39.8993 14.2804C39.833 14.4576 39.7358 14.6185 39.6132 14.754L38.5576 15.8888" stroke="#B20B18" stroke-linecap="round" stroke-linejoin="round"/>
<path d="M19.772 31.2981L22.8079 34.6513" stroke="#B20B18" stroke-linecap="round" stroke-linejoin="round"/>
</svg>
